<svg xmlns="http://www.w3.org/2000/svg" viewBox="0 0 4000 4000"><defs><style>.cls-1{fill:none;}.cls-2{fill:#9b7657;}.cls-28,.cls-3,.cls-36,.cls-37{fill:#333;}.cls-4{fill:#755841;}.cls-5{fill:#f7c394;}.cls-35,.cls-6{fill:#7f6145;}.cls-7{fill:#ffc9a1;}.cls-8{fill:#d6d6d6;}.cls-9{fill:#f9eb3d;}.cls-10{fill:#ffcd98;}.cls-11{opacity:0.08;}.cls-12{opacity:0.1;}.cls-13{opacity:0.05;}.cls-14,.cls-22,.cls-24,.cls-28,.cls-36,.cls-37{opacity:0.2;}.cls-15{fill:#fff;}.cls-16{fill:#566859;}.cls-17{fill:#4f4f4f;}.cls-17,.cls-18,.cls-21,.cls-27,.cls-28,.cls-30,.cls-31,.cls-35,.cls-36,.cls-37{stroke:#333;}.cls-17,.cls-18,.cls-20,.cls-21,.cls-22,.cls-27,.cls-28,.cls-29,.cls-30,.cls-31,.cls-32,.cls-35,.cls-36,.cls-37{stroke-miterlimit:10;}.cls-17,.cls-18,.cls-20,.cls-21,.cls-22,.cls-27,.cls-28,.cls-29,.cls-30,.cls-31,.cls-35{stroke-width:5px;}.cls-18{fill:#736c3b;}.cls-19{fill:#2b2b2b;}.cls-20,.cls-22,.cls-24,.cls-29,.cls-32,.cls-34{fill:#231f20;}.cls-20,.cls-22,.cls-29,.cls-32{stroke:#231f20;}.cls-20,.cls-33{opacity:0.15;}.cls-21{fill:#4f4927;}.cls-23{fill:#cec467;}.cls-25{fill:#8df7ff;opacity:0.5;}.cls-26{fill:#775a42;}.cls-27{fill:#f41655;}.cls-29,.cls-32{opacity:0.3;}.cls-30{fill:#423809;}.cls-31{fill:#2d2d2d;}.cls-32{stroke-width:4.26px;}.cls-36{stroke-width:4.52px;}.cls-37{stroke-width:6px;}.cls-38{fill:#4b72d1;}</style></defs><title>heisenberg</title><g id="heisenberg"><rect class="cls-1" width="4000" height="4000"/><path class="cls-2" d="M2304.67,3292.92a204.73,204.73,0,0,1-29.56-2.28c-50.77-7.42-115.16-32.27-196.86-76a25,25,0,0,1,23.59-44.09c75.45,40.37,136.18,64.12,180.5,70.6,28.93,4.23,49.75,1,61.88-9.64,13.61-11.92,12.39-33,8.83-72.39-4.17-46.12-9.36-103.53,19.78-169.51,22.06-50,60.82-97.58,106.32-130.66,24.68-17.94,50.48-31.1,76.69-39.12,29.15-8.92,58.11-11.24,86.08-6.92,34.55,5.35,69.21,20.88,97.6,43.73,32.6,26.24,54.08,59.73,62.13,96.86,6.59,30.41,4.83,66.52-4.71,96.6-12.26,38.65-36.7,66.29-68.82,77.83a102.94,102.94,0,0,1-35,6c-49.4,0-90.4-33.45-95.84-38.08a25,25,0,1,1,32.42-38.06c.43.36,43.66,36.65,81.49,23.06,21.92-7.87,32.8-29.3,38.06-45.89,6.91-21.79,8.25-49,3.5-70.89-7.07-32.63-28.16-55.26-44.61-68.5-21.34-17.18-48.27-29.3-73.9-33.27-28.11-4.34-72.73-1.44-125.72,37.07-38.58,28.05-71.38,68.29-90,110.42-23.91,54.16-19.56,102.32-15.72,144.81,4,43.84,7.71,85.25-25.67,114.5C2359.1,3285,2334.79,3292.92,2304.67,3292.92Z"/><path class="cls-3" d="M2304.67,3295.42a208.17,208.17,0,0,1-29.93-2.3c-51-7.47-115.71-32.41-197.67-76.25a27.5,27.5,0,0,1,25.95-48.5c75.19,40.23,135.65,63.89,179.68,70.32,28.17,4.12,48.32,1.08,59.87-9,12.7-11.12,11.47-31.75,8-70.28-4.2-46.42-9.42-104.18,20-170.75,22.24-50.35,61.29-98.35,107.14-131.67,24.9-18.1,51-31.38,77.43-39.49,29.51-9,58.84-11.38,87.19-7,35,5.41,70.06,21.13,98.79,44.25,33,26.61,54.83,60.59,63,98.29,6.68,30.81,4.9,67.4-4.77,97.87-12.5,39.42-37.48,67.63-70.36,79.43a105.74,105.74,0,0,1-35.81,6.17c-50.58,0-92.81-34.72-97.46-38.67a27.5,27.5,0,1,1,35.66-41.88c.42.36,42.67,35.67,79,22.62,21-7.53,31.43-28.24,36.52-44.3,6.78-21.4,8.1-48.07,3.44-69.6-6.92-31.92-27.6-54.1-43.74-67.08-21-16.91-47.51-28.85-72.71-32.75-27.64-4.28-71.57-1.39-123.87,36.63-38.23,27.79-70.74,67.67-89.17,109.4-23.66,53.57-19.33,101.38-15.52,143.57,4,44.5,7.83,86.52-26.52,116.61C2360.33,3287.21,2335.38,3295.42,2304.67,3295.42Zm-214.59-125.3a22.5,22.5,0,0,0-10.65,42.34c81.44,43.56,145.57,68.33,196,75.71a203.8,203.8,0,0,0,29.2,2.25c29.46,0,53.3-7.79,70.85-23.16,32.43-28.41,28.74-69.21,24.83-112.4-3.87-42.79-8.25-91.29,15.93-146,18.78-42.52,51.87-83.13,90.8-111.43,53.68-39,99-41.94,127.57-37.52,26,4,53.42,16.35,75.09,33.79,16.76,13.49,38.26,36.58,45.48,69.93,4.84,22.33,3.48,50-3.56,72.17-5.43,17.12-16.71,39.26-39.59,47.48-39.16,14.06-83.52-23.13-84-23.51a22.5,22.5,0,1,0-29.18,34.26c4.51,3.84,45.42,37.48,94.22,37.48a100.81,100.81,0,0,0,34.12-5.87c31.37-11.27,55.27-38.34,67.29-76.24,9.41-29.67,11.14-65.3,4.64-95.31-7.92-36.56-29.1-69.57-61.24-95.44-28.06-22.58-62.3-37.93-96.43-43.21-27.59-4.27-56.18-2-85,6.84-26,7.94-51.5,21-76,38.75-45.16,32.83-83.61,80.08-105.51,129.65-28.88,65.39-23.72,122.44-19.57,168.27,3.63,40.21,4.85,61.77-9.67,74.5-12.71,11.13-34.2,14.57-63.89,10.23-44.61-6.52-105.61-30.36-181.32-70.86A22.41,22.41,0,0,0,2090.08,3170.12Z"/><path class="cls-4" d="M1580.05,3154.46a62.49,62.49,0,0,1-62.49-62.27c-.35-95.35,34-193.09,99.3-282.65,56-76.83,132.08-142.11,208.64-179.11A62.5,62.5,0,1,1,1879.89,2743c-58.66,28.35-117.72,79.46-162,140.22-34.53,47.35-75.62,122-75.3,208.54a62.5,62.5,0,0,1-62.27,62.73Z"/><path class="cls-3" d="M1580.3,3157h-.25a65.12,65.12,0,0,1-65-64.76c-.35-95.89,34.15-194.14,99.78-284.13,56.27-77.15,132.65-142.72,209.57-179.89a65,65,0,1,1,56.57,117c-58.3,28.18-117,79-161.1,139.45-34.31,47-75.14,121.15-74.82,207A65,65,0,0,1,1580.3,3157Zm272.3-530.26a59.55,59.55,0,0,0-26,6c-76.21,36.82-151.91,101.83-207.71,178.33-65,89.13-99.17,186.36-98.82,281.17a60.11,60.11,0,0,0,60,59.78h.24a60,60,0,0,0,59.77-60.22c-.32-87.26,41-162.37,75.78-210,44.55-61.08,104-112.48,163-141a60,60,0,0,0-26.2-114Z"/><path class="cls-4" d="M1864.5,3526.24c-1.28,0-2.56,0-3.86-.08a95,95,0,0,1-91.13-98.71c4.64-116.19,33.54-197,54.63-256,6.3-17.61,11.74-32.82,15.66-46.38a95,95,0,1,1,182.53,52.74c-5.55,19.23-12.22,37.88-19.28,57.62-18.85,52.7-40.21,112.44-43.69,199.59A95,95,0,0,1,1864.5,3526.24Z"/><path class="cls-3" d="M1864.5,3528.74c-1.31,0-2.64,0-4-.08A97.52,97.52,0,0,1,1767,3427.35c4.66-116.57,33.63-197.59,54.78-256.74,6.29-17.58,11.71-32.75,15.61-46.23a97.5,97.5,0,0,1,187.34,54.12c-5.59,19.32-12.27,38-19.34,57.77-18.78,52.54-40.08,112.09-43.54,198.85a97.52,97.52,0,0,1-97.36,93.62Zm66.43-469.84a92.62,92.62,0,0,0-88.73,66.87c-3.94,13.63-9.39,28.87-15.7,46.51-21,58.86-49.87,139.46-54.49,255.26a92.5,92.5,0,0,0,88.73,96.12c1.25.05,2.51.08,3.76.08a92.52,92.52,0,0,0,92.36-88.82c3.5-87.53,24.93-147.46,43.84-200.34,7-19.69,13.69-38.3,19.23-57.47a92.49,92.49,0,0,0-63.19-114.54A92.88,92.88,0,0,0,1930.93,3058.9Z"/><path class="cls-5" d="M1910,3556.61a67.37,67.37,0,0,1-21.26-3.45c-27.72-9.2-93.83-15.48-147.71.23a67.5,67.5,0,1,1-37.78-129.61c46.2-13.47,92.28-15.49,122.79-14.82,39.22.86,76.58,6.57,105.2,16.06A67.51,67.51,0,0,1,1910,3556.61Z"/><path class="cls-3" d="M1910,3559.11a70.07,70.07,0,0,1-22-3.58c-27.42-9.1-92.85-15.3-146.22.26a70,70,0,1,1-39.18-134.41c46.51-13.56,92.86-15.59,123.55-14.92,39.46.87,77.08,6.62,105.93,16.19a70,70,0,0,1-22,136.46Zm-94.8-17.79c30.93,0,58.68,4.27,74.33,9.46a65,65,0,0,0,40.92-123.39c-28.39-9.41-65.49-15.07-104.46-15.93-30.34-.67-76.15,1.34-122,14.72a65,65,0,1,0,36.38,124.8C1764.34,3544,1790.77,3541.32,1815.21,3541.32Z"/><path class="cls-4" d="M2135.37,3528.07a95,95,0,0,1-94.76-89.56c-5-87.08-27.4-146.43-47.17-198.81-7.4-19.61-14.39-38.14-20.28-57.27a95,95,0,0,1,181.59-55.91c4.15,13.49,9.85,28.6,16.46,46.1,22.12,58.62,52.42,138.91,59.09,255a95,95,0,0,1-89.4,100.29C2139.05,3528,2137.2,3528.07,2135.37,3528.07Z"/><path class="cls-3" d="M2135.37,3530.57a97.53,97.53,0,0,1-97.25-91.92c-5-86.69-27.31-145.86-47-198.06-7.42-19.66-14.43-38.22-20.34-57.43a97.5,97.5,0,1,1,186.36-57.38c4.14,13.42,9.83,28.5,16.41,45.95,22.19,58.78,52.57,139.27,59.26,255.74A97.5,97.5,0,0,1,2141,3530.4C2139.16,3530.51,2137.25,3530.57,2135.37,3530.57Zm-71.3-468.64a92.54,92.54,0,0,0-88.52,119.76c5.87,19.06,12.84,37.55,20.23,57.13,19.83,52.54,42.31,112.09,47.33,199.55a92.53,92.53,0,0,0,92.26,87.2c1.79,0,3.6-.06,5.39-.16a92.51,92.51,0,0,0,87-97.65c-6.64-115.7-36.86-195.79-58.93-254.26-6.62-17.54-12.34-32.68-16.51-46.25a92.62,92.62,0,0,0-88.29-65.32Z"/><path class="cls-5" d="M2090,3556.61A67.51,67.51,0,0,1,2068.75,3425c28.62-9.49,66-15.2,105.2-16.06,30.51-.67,76.59,1.35,122.79,14.82A67.5,67.5,0,1,1,2259,3553.39c-53.88-15.71-120-9.43-147.71-.23A67.41,67.41,0,0,1,2090,3556.61Z"/><path class="cls-3" d="M2090,3559.11a70,70,0,0,1-22-136.46c28.85-9.57,66.47-15.32,105.93-16.19,30.69-.68,77,1.36,123.55,14.92a70,70,0,0,1-19.56,137.22h0a70.37,70.37,0,0,1-19.61-2.81c-53.37-15.56-118.8-9.35-146.22-.26A70.07,70.07,0,0,1,2090,3559.11Zm94.21-147.76c-3.56,0-7,0-10.2.11-39,.86-76.07,6.52-104.46,15.93a65,65,0,1,0,40.93,123.39c28-9.29,94.8-15.65,149.19.2a64.93,64.93,0,0,0,18.21,2.62h0A65,65,0,0,0,2296,3426.18C2255,3414.22,2214.09,3411.35,2184.2,3411.35Z"/><path class="cls-4" d="M2411.42,3137.38a62.52,62.52,0,0,1-62.26-68.8c5.42-53.52-18.62-122.19-65.95-188.39-44.74-62.6-107-117.39-162.44-143a62.5,62.5,0,1,1,52.42-113.47c37.53,17.33,76.84,43.49,113.66,75.63a638.57,638.57,0,0,1,98.05,108.15c65.71,91.92,97.19,189.11,88.63,273.68A62.51,62.51,0,0,1,2411.42,3137.38Z"/><path class="cls-3" d="M2411.42,3139.88c-2.2,0-4.43-.11-6.62-.33a65.07,65.07,0,0,1-58.12-71.22c5.35-52.92-18.52-121-65.5-186.69-44.51-62.26-106.37-116.74-161.46-142.19a65,65,0,1,1,54.52-118c37.75,17.43,77.26,43.72,114.26,76A641.26,641.26,0,0,1,2386.94,2806c66.06,92.41,97.69,190.21,89.07,275.38A64.77,64.77,0,0,1,2411.42,3139.88Zm-264.35-519.43a60,60,0,0,0-25.25,114.47c55.82,25.78,118.45,80.89,163.43,143.81,47.67,66.7,71.88,136,66.4,190.11A60,60,0,1,0,2471,3080.92c8.5-84-22.82-180.55-88.17-272a636.38,636.38,0,0,0-97.66-107.72c-36.65-32-75.75-58-113.07-75.25A59.52,59.52,0,0,0,2147.07,2620.45Z"/><path class="cls-6" d="M2025.55,2468.72c55.31,3.41,93.41,43.63,127.17,80.31,39.32,42.72,80.12,104.46,119,245.31,39.4,142.77,45.88,220.06,45.88,292,0,153.62-140.68,305.09-320,306.63-175.53,1.51-319-153-319-306.63,0-72.8,12.64-145.29,62.27-292.31,48.16-142.67,92.57-200.23,125.82-235.11C1904.21,2519.59,1956.72,2464.49,2025.55,2468.72Z"/><path class="cls-3" d="M1995,3395.52a303.75,303.75,0,0,1-121.87-25.69,333.85,333.85,0,0,1-102-69.51c-60.45-59.92-95.11-137.9-95.11-213.94,0-79.91,16.33-156.61,62.4-293.1,47.93-142,92.72-200.72,126.38-236.05,38.34-40.22,90.84-95.31,160.83-91,57.45,3.53,97,46.55,128.86,81.11,36.43,39.57,79.12,99.79,119.56,246.34,38.15,138.26,46,217,46,292.7s-34.07,153-93.49,212.12a335.57,335.57,0,0,1-102.35,69.84,321,321,0,0,1-126.62,27.17ZM2018,2471c-64.07,0-113.26,51.62-149.55,89.69-33.31,35-77.65,93.16-125.26,234.2-45.88,135.91-62.14,212.19-62.14,291.5,0,74.71,34.13,151.4,93.63,210.39a328.6,328.6,0,0,0,100.44,68.47,297.72,297.72,0,0,0,122.43,25.27c84.17-.72,164.25-34.66,225.49-95.56,58.47-58.15,92-134.17,92-208.57,0-60.68-3.54-138.25-45.79-291.37-40.16-145.52-82.4-205.15-118.42-244.29-31.21-33.9-70-76.09-125.49-79.5C2022.92,2471.07,2020.46,2471,2018,2471Z"/><path class="cls-5" d="M1997.29,2512.77c41-.36,82.22,51.85,113.58,106.22,48.06,83.32,65.36,157.62,70.56,181.37,32.46,148.28,54.24,271.27-6,346.6-59.91,74.89-132.36,85.58-175.41,85.58-47.55,0-118.32-8.27-177.41-81.89-58.83-73.29-34.76-194.73,3.51-350.46,3.93-16,38.3-103.8,95.44-210.33C1939.77,2555.87,1964.38,2513.06,1997.29,2512.77Z"/><path class="cls-3" d="M2000,3235c-48.46,0-119.77-8.59-179.36-82.83-27.81-34.65-39-81.05-35.2-146,3.61-61.75,20.86-135.92,38.23-206.6,4.2-17.09,38.82-104.93,95.66-210.91,20.27-37.79,44.67-78.12,77.94-78.41h0c19.5-.21,40.45,11.05,62.23,33.34,17.46,17.88,35.47,42.82,53.53,74.13,32.67,56.62,57.16,119.59,70.84,182.09,15,68.43,29.78,140.33,31.82,201.1,2.19,65.27-10,112.17-38.33,147.6-26.73,33.41-58.72,57.51-95.07,71.63C2056.87,3230,2029.19,3235,2000,3235Zm-2.71-722.27,0,2.5c-30.53.27-54,39.25-73.57,75.77-55.82,104.09-91.19,193.37-95.21,209.74-17.31,70.46-34.52,144.37-38.1,205.7-3.72,63.66,7.12,109,34.11,142.61,58.25,72.56,128,80.95,175.46,80.95,28.57,0,55.64-4.89,80.48-14.54,35.52-13.79,66.8-37.38,93-70.1,58.88-73.59,38.41-194.32,5.54-344.5-13.57-62-37.88-124.48-70.29-180.66-27.65-47.94-69.31-105-111-105h-.4Z"/><path class="cls-5" d="M863.8,1836.78c-109.3,103.92-60.91,310.4,16.55,426.94,110.37,166.07,358.19,267.53,482.59,176,129.94-95.63,107.64-388.85-48.6-538.55C1197.69,1789.37,976.84,1729.31,863.8,1836.78Z"/><path class="cls-3" d="M1246,2476.77a318.26,318.26,0,0,1-55.38-5.1c-57.38-10.13-117.14-34.7-172.8-71-57.12-37.28-105.36-84.15-139.51-135.53-41.62-62.64-71-144.63-78.71-219.33-4.33-42.23-1.83-81.08,7.42-115.48C817.26,1892,835.8,1860,862.08,1835c52.55-50,132.85-68,226.09-50.68,83.71,15.51,168.91,58.52,227.9,115,45.32,43.41,81.71,101.21,105.27,167.13,22.24,62.27,31.89,127.73,27.89,189.3-5.42,83.64-35.54,149.67-84.8,185.93C1332.86,2464.94,1292.53,2476.77,1246,2476.77Zm-382.15-640,1.73,1.81c-34.17,32.48-72.48,94.7-61,206.67,7.58,73.93,36.7,155.08,77.9,217.07,33.77,50.82,81.52,97.2,138.07,134.11,55.11,36,114.21,60.29,170.94,70.31,68.86,12.17,127.65,2.11,170-29.07,48.06-35.37,77.46-100.09,82.79-182.23,4-60.9-5.61-125.66-27.62-187.3-23.29-65.19-59.26-122.32-104-165.2-58.32-55.88-142.56-98.4-225.35-113.74-91.63-17-170.38.55-221.73,49.38Z"/><path class="cls-7" d="M995.57,1954.6c-64.75,69.33-26.65,197.17,26.33,267.46,75.51,100.15,234.9,154.61,309.6,92.47,78-64.9,53.06-248.18-50.63-336.34C1203.46,1912.36,1062.54,1882.9,995.57,1954.6Z"/><path class="cls-8" d="M2009.67,3079.3c-65.56,0-118.9-62-118.9-138.22a157.8,157.8,0,0,1,7.59-48.7l2.38-7.34,2.38,7.34c15.42,47.63,55.26,76.06,106.55,76.06s91.12-28.43,106.55-76.06l2.37-7.34,2.38,7.34a157.81,157.81,0,0,1,7.6,48.7C2128.57,3017.29,2075.23,3079.3,2009.67,3079.3Z"/><path class="cls-3" d="M2118.59,2893.15a155.39,155.39,0,0,1,7.48,47.93c0,75-52.11,135.72-116.4,135.72s-116.4-60.77-116.4-135.72a155.68,155.68,0,0,1,7.47-47.93c16.62,51.3,59.11,77.79,108.93,77.79s92.31-26.49,108.92-77.79m0-16.23-4.75,14.69c-7.73,23.87-21.22,42.56-40.09,55.56-17.84,12.28-40,18.77-64.08,18.77s-46.24-6.49-64.08-18.77c-18.87-13-32.36-31.69-40.09-55.56l-4.76-14.69-4.75,14.69a160,160,0,0,0-7.72,49.47c0,37.44,12.53,72.68,35.3,99.22,23,26.76,53.52,41.5,86.1,41.5s63.15-14.74,86.1-41.5c22.76-26.54,35.3-61.78,35.3-99.22a160.33,160.33,0,0,0-7.72-49.47l-4.76-14.69Z"/><path class="cls-5" d="M3133.19,1832.12c111.1,102,66.32,309.29-9.09,427.16-107.46,168-353.47,273.75-479.46,184.37-131.58-93.35-114.4-386.92,39.2-539.32C2798.52,1790.55,3018.29,1726.64,3133.19,1832.12Z"/><path class="cls-3" d="M2757.53,2478.72c-44.6,0-83.45-11.13-114.33-33-49.89-35.4-81.16-100.89-88-184.43-5.07-61.49,3.43-127.1,24.59-189.75,22.4-66.33,57.78-124.75,102.33-169,58-57.55,142.43-102,225.85-119,92.93-18.9,173.53-2.31,227,46.73,26.71,24.52,45.81,56.26,56.77,94.34,9.85,34.24,13,73,9.43,115.34-6.36,74.82-34.35,157.31-74.88,220.67-33.24,52-80.66,99.67-137.11,137.94-55,37.31-114.34,62.91-171.53,74A314.46,314.46,0,0,1,2757.53,2478.72Zm222.53-697.78a357.92,357.92,0,0,0-71.13,7.51c-82.51,16.79-166,60.77-223.33,117.66-44,43.66-79,101.4-101.11,167-20.94,62-29.36,126.93-24.35,187.74,6.76,82,37.29,146.24,86,180.76,42.91,30.44,101.87,39.47,170.51,26.1,56.54-11,115.21-36.35,169.68-73.28,55.9-37.89,102.83-85.1,135.71-136.5,40.11-62.7,67.82-144.34,74.1-218.4,5.26-61.9-1.68-147.82-64.59-205.57C3093.42,1799,3041.05,1780.94,2980.06,1780.94Z"/><path class="cls-7" d="M3003.49,1952.22c66,68.19,30.1,196.68-21.65,267.88-73.75,101.45-232.17,158.69-307.94,97.86-79.14-63.53-57.39-247.22,44.75-337.18C2794.91,1913.62,2935.29,1881.7,3003.49,1952.22Z"/><path class="cls-9" d="M1991.93,2845.72a843.76,843.76,0,0,1-353.74-77.17c-101.69-46.56-196.24-113.27-281-198.29-99.64-99.91-182.94-222.82-240.89-355.44-27.45-62.79-48.61-126.39-62.91-189-14.24-62.37-21.38-122.51-21.22-178.74.64-238.26,104.16-487.95,284-685.06a1145.57,1145.57,0,0,1,143.13-132.33,1083.41,1083.41,0,0,1,164.32-105.53c120.52-62.64,247.35-99,377-108.13,13.19-.93,26.76-1.4,40.34-1.4,119.81,0,221.73,35.22,271.83,56.22,34.2,14.33,65.1,30.77,87,46.28,15.27,10.81,33.48,26.31,33.48,38.72,0,6.56-4.92,14.38-28.41,14.38-14.78,0-35.22-3-60.53-9C2523,1030.13,2665.4,1126.71,2768.19,1249c64.16,76.32,113.44,163.64,146.48,259.53,35.07,101.78,52.67,215.69,52.33,338.56-.28,98.79-22.66,209.37-64.72,319.77-44.26,116.19-109.13,228.1-187.59,323.63-87.65,106.74-189.7,191.41-303.31,251.68-127.11,67.42-265.65,102.26-411.79,103.53C1997,2845.71,1994.47,2845.72,1991.93,2845.72Z"/><path class="cls-3" d="M2040.89,817.11c244.72,0,467.16,150.6,363.91,150.6-24.94,0-68.88-8.78-136.08-30.58l-1-.31,1,.31c397.69,129.31,697.2,403.27,695.78,909.93-1.09,388.75-348.57,990.75-964.93,996.12-2.54,0-5.11,0-7.64,0-590.18,0-958.38-597.91-957.29-996.16,1.32-488.44,432.22-991,966.09-1028.56,13.41-.94,26.83-1.39,40.16-1.39m0-5v0c-13.66,0-27.29.47-40.52,1.4a937.67,937.67,0,0,0-195.78,35.13,1004.07,1004.07,0,0,0-182.17,73.28,1087,1087,0,0,0-164.71,105.78,1155,1155,0,0,0-261.8,286.46,1109.7,1109.7,0,0,0-89.46,169.47,1010.29,1010.29,0,0,0-56.72,179.5,893.39,893.39,0,0,0-20.1,183.92c-.16,56.42,7,116.75,21.29,179.3,14.33,62.79,35.54,126.53,63,189.47,58.07,132.9,141.55,256.08,241.41,356.21,85,85.23,179.79,152.11,281.75,198.8a846.48,846.48,0,0,0,354.79,77.39c2.53,0,5.12,0,7.68,0,146.54-1.27,285.48-36.21,412.94-103.82A956.44,956.44,0,0,0,2578.67,2632a1066.61,1066.61,0,0,0,137.95-139.91,1173.7,1173.7,0,0,0,188-324.32c42.17-110.69,64.6-221.57,64.88-320.66.17-62.42-4.28-123-13.24-180A936.53,936.53,0,0,0,2917,1507.69a831.14,831.14,0,0,0-62.85-139.57,810.5,810.5,0,0,0-84.08-120.75c-98-116.54-231.78-209.79-398.64-278,13.09,2.22,24.26,3.35,33.34,3.35,9.54,0,16.67-1.19,21.79-3.65,5.88-2.83,9.12-7.52,9.12-13.23,0-10.81-11.62-24.53-34.53-40.75-22.06-15.62-53.13-32.15-87.49-46.55-50.27-21.07-152.55-56.42-272.78-56.42Z"/><path class="cls-3" d="M1992,2845.72A843.6,843.6,0,0,1,1643.55,2771c-102.36-46-197.6-112.45-283-197.4-100.61-100-184.75-223.36-243.35-356.75-27.72-63.11-49.11-127-63.56-190-14.39-62.72-21.61-123.19-21.45-179.72.64-238.26,104.16-487.95,284-685.06a1145.57,1145.57,0,0,1,143.13-132.33,1083.9,1083.9,0,0,1,164.32-105.53c120.52-62.64,247.35-99,377-108.13,188.29-13.24,668.41,175.86,610.27,183.28a316.2,316.2,0,0,1-40,2.35c-55.9,0-127.46-11.85-213.88-35.42,172.64,68.45,310.59,163.2,410.91,282.4,64.26,76.35,113.62,163.71,146.71,259.65,35.12,101.84,52.75,215.83,52.41,338.8-.28,98.79-22.66,209.37-64.72,319.77C2858,2283,2793.15,2394.93,2714.69,2490.47c-87.65,106.74-189.7,191.41-303.31,251.68-127.11,67.42-265.65,102.26-411.79,103.53C1997.05,2845.71,1994.5,2845.72,1992,2845.72ZM2124,816.57c-37.68,0-78.61,1.3-123.06,4.43-128.93,9.06-255.1,45.25-375,107.58a1078.55,1078.55,0,0,0-163.57,105,1139.81,1139.81,0,0,0-142.49,131.75c-179,196.2-282,444.67-282.69,681.7-.16,56.16,7,116.24,21.32,178.6,14.39,62.69,35.67,126.33,63.27,189.15,58.34,132.82,142.13,255.65,242.29,355.22,85,84.52,179.77,150.59,281.58,196.38a838.87,838.87,0,0,0,354,74.26c145.32-1.26,283.1-35.9,409.49-102.95,113-59.95,214.56-144.21,301.79-250.43,78.12-95.13,142.71-206.55,186.78-322.24,41.85-109.84,64.11-219.81,64.39-318,.34-122.41-17.2-235.85-52.14-337.16-32.89-95.36-81.94-182.19-145.8-258.06-116.09-137.92-282.92-243-495.89-312.26l-1.15-.37h0a2.5,2.5,0,0,1,1.55-4.76l1.19.39c82.44,26.76,155,45.06,215.75,54.4,49.57,7.62,91.53,9.34,124.71,5.1C2665.81,987.23,2245.45,816.57,2124,816.57Z"/><path class="cls-10" d="M1999.57,1320.55c19.15-.16,112.39-116.75,268-116.74,223.53,0,482,324.76,482.28,643.25.16,205.85-111.65,252-111.45,275.69.19,21.13,236.88,22.58,236.88,254.71,0,209.25-420.37,512-840.86,524.16-461.31,13.34-910.31-319.74-910.31-497.74,0-232.44,237-260.58,236.85-281.27s-111.76-76.15-111.93-275.55c-.26-318.49,259.27-643.25,482.47-643.25C1903.93,1203.8,1976.84,1320.75,1999.57,1320.55Z"/><path class="cls-3" d="M2007.73,2904.5c-140.35,0-289.44-31.4-433-91.39-133-55.57-253.8-132.37-340.15-216.26-72.81-70.74-112.91-139.27-112.91-193,0-77.72,26.62-141.87,79.12-190.68,43.53-40.46,96.1-62.11,127.51-75,9.39-3.87,17.49-7.21,22.93-10,7.1-3.69,7.29-5.32,7.29-5.5,0-4-7-11.52-15.94-21-31.11-33.28-95.86-102.52-96-254.54-.06-77.12,14.76-156.43,44-235.74a799.89,799.89,0,0,1,113.91-206.85c46.78-61,100.75-111.88,156.09-147.06,57.74-36.71,116.84-56.11,170.93-56.11,127.24,0,200.42,63,239.74,96.86,12.89,11.11,23.09,19.88,28.24,19.88h0c4.09,0,14.64-8.37,28-18.92,20.7-16.36,52-41.08,92.17-61.37,47.91-24.19,97.67-36.45,147.89-36.45h0c54.16,0,113.27,19.4,171,56.11,55.27,35.17,109.17,86,155.89,147.06a801.21,801.21,0,0,1,113.74,206.85c29.26,79.28,44.12,158.59,44.18,235.73,0,66.64-11.78,124.47-35.18,171.89-19.64,39.81-43.38,64.51-59.09,80.86-10,10.4-17.22,17.91-17.18,22.92,0,.17.22,1.74,7.29,4.64,5.52,2.26,13.72,4.74,23.23,7.61,33.46,10.09,84,25.34,127.46,60.94,52.36,42.91,78.9,104,78.9,181.54,0,51.16-25.17,109.95-72.79,170-46.2,58.28-112.28,116.39-191.09,168.06-81.42,53.39-174.75,98.63-269.9,130.84-104.54,35.4-208.68,54.82-309.51,57.74C2025.64,2904.38,2016.69,2904.5,2007.73,2904.5Zm-276.2-1698.19c-53.13,0-111.31,19.13-168.24,55.33-54.86,34.87-108.39,85.32-154.81,145.88a795,795,0,0,0-113.19,205.54c-29.08,78.75-43.79,157.48-43.73,234,.12,150.06,64,218.32,94.64,251.13,10.75,11.49,17.24,18.43,17.29,24.4,0,6.45-11.1,11-33.32,20.19-33.11,13.63-83.14,34.24-126,74.09-51.44,47.82-77.53,110.74-77.53,187,0,52.34,39.56,119.6,111.39,189.38,85.91,83.46,206.16,159.9,338.59,215.23,152.11,63.55,310.4,94.89,457.76,90.63,100.33-2.9,204-22.24,308-57.47,94.75-32.08,187.69-77.13,268.76-130.29,78.37-51.38,144-109.12,189.91-167,46.91-59.18,71.71-116.9,71.71-166.92,0-76-25.93-135.76-77.07-177.67-42.66-35-92.66-50.05-125.74-60-22.64-6.83-34-10.26-34.07-17-.06-7,7.35-14.75,18.57-26.43,15.5-16.12,38.92-40.49,58.22-79.6,23.05-46.73,34.71-103.82,34.66-169.67-.06-76.55-14.82-155.28-43.87-234a796.13,796.13,0,0,0-113-205.54c-46.36-60.58-99.82-111-154.61-145.88-56.89-36.2-115.08-55.33-168.28-55.33-114.52,0-194.17,62.93-237,96.75-15.74,12.43-25.24,19.94-31.05,20h-.08c-7,0-16.24-8-31.51-21.09C1929.18,1268.53,1856.91,1206.3,1731.53,1206.31Z"/><g class="cls-11"><path d="M2175.41,3147c-59.91,74.88-132.36,85.57-175.41,85.57-47.55,0-118.32-8.27-177.41-81.89-27.71-34.52-37-79.73-35.13-134.17,1.64,43,12,79.3,35.13,108.17,59.09,73.62,129.86,81.89,177.41,81.89,43,0,115.5-10.69,175.41-85.57,25.37-31.72,36.2-71.88,37.82-118.83C2215,3060.35,2205.35,3109.54,2175.41,3147Z"/></g><g class="cls-11"><path d="M1134.51,2454.76c-97.43-32.35-195.32-102.51-254.16-191-77.46-116.54-125.85-323-16.55-426.94,45.17-42.94,107.55-59.13,173.62-56-.29,3.54-.55,7.07-.79,10.61-50.59,4.15-97.1,21.38-132.83,55.35-109.3,103.92-60.91,310.4,16.55,426.94,50.31,75.69,129.16,138,211.87,174.64C1132.93,2450.48,1133.7,2452.61,1134.51,2454.76Z"/></g><g class="cls-11"><path d="M3124.1,2259.28c-60.69,94.85-165.55,169.87-268,201.12.78-1.77,1.53-3.53,2.26-5.3,88.21-36.93,173.43-104,225.78-185.82,75.41-117.87,120.19-325.17,9.09-427.16-35.38-32.48-80.71-48.9-129.86-52.74q-.23-5.24-.5-10.44c64.45-3.41,125.42,11.93,170.36,53.18C3244.29,1934.11,3199.51,2141.41,3124.1,2259.28Z"/></g><g class="cls-12"><path d="M2333.57,957.05l1.81.51q-5.76-1.83-11.62-3.74Q2328.68,955.41,2333.57,957.05Z"/><path d="M2033.94,843.8c-533.87,37.53-942,531.82-943.3,1020.27-.3,106.94,28.59,233.52,78.72,353.81,58.8-73.84,151.53-99.67,178.59-114.16,7.94,8.57,13,14.51,13,18.89,0,.12,0,.24,0,.36a2,2,0,0,1,0,.26,3.42,3.42,0,0,1-.44,1.09l-.17.28a9,9,0,0,1-1.66,1.78l-.32.26a37.91,37.91,0,0,1-6.52,4l-1.61.79c-3.74,1.83-8.36,3.82-13.67,6l-1.23.51c-5.39,2.24-11.47,4.71-18.08,7.49l-3.09,1.3c-4.16,1.77-8.51,3.65-13,5.67l-3.4,1.54-1.72.79c-1.73.79-3.48,1.61-5.24,2.44-2.35,1.12-4.74,2.27-7.15,3.46l-1.81.9-1.82.91c-1.21.6-2.44,1.23-3.67,1.87q-4.61,2.37-9.3,4.94c-.63.34-1.25.68-1.88,1q-3.77,2.08-7.56,4.31-1.9,1.1-3.81,2.25l-.11.06q-4.71,2.85-9.44,5.89l-1.91,1.24c-1.91,1.26-3.83,2.54-5.74,3.84-.64.43-1.27.87-1.91,1.32q-4.77,3.33-9.51,6.88-3.8,2.87-7.54,5.87-2.8,2.27-5.6,4.62c-.62.51-1.24,1-1.85,1.58l-1.84,1.6q-1.85,1.59-3.66,3.27l-1.82,1.67-1.81,1.69c-1.15,1.08-2.29,2.18-3.42,3.28l-1.95,1.93c-1.19,1.18-2.36,2.37-3.52,3.59l-1.74,1.83q-3.48,3.67-6.85,7.55-1.68,1.93-3.33,3.92l-1.65,2q-1.95,2.37-3.82,4.8-1.74,2.23-3.41,4.53l-.3.39-.54.75-.41.57c-.31.44-.62.89-.94,1.33-.57.8-1.14,1.59-1.7,2.39-.87,1.25-1.73,2.51-2.56,3.79-.13.18-.25.35-.36.53l-.57.85-.32.5-1,1.61-1,1.59c-.35.54-.69,1.09-1,1.64-1,1.69-2.07,3.4-3.08,5.13-.15.25-.29.5-.43.75q-1.49,2.58-2.92,5.22a.2.2,0,0,0,0,.08q-.74,1.35-1.44,2.7c-.46.86-.9,1.73-1.35,2.6l-.08.15c-76.27-147.6-117-302.56-116.59-435.33,1.32-488.45,432.22-991,966.09-1028.57C2320.14,796.05,2353.35,821.35,2033.94,843.8Z"/></g><path class="cls-13" d="M1390.82,2108.61c0,3.67-23.81,15.25-36.41,20.62,4.23-2.41,6.58-4.54,6.58-6.6v0c-.18-20.61-111.76-76.15-111.93-275.54v-.48c0-1.83,0-3.66,0-5.48v-.52q0-3,.1-5.95C1259.43,2012.06,1390.65,2089,1390.82,2108.61Z"/><path class="cls-13" d="M2644.33,2128.38c-12.95-5.65-34.48-16.28-34.45-19.77.16-18.89,121.63-90.8,139.95-254.23-2.45,199.63-111.6,244.95-111.4,268.37C2638.45,2124.73,2640.55,2126.54,2644.33,2128.38Z"/><g class="cls-12"><path d="M1974.07,3510.34a67.43,67.43,0,0,1-85.32,42.82c-27.72-9.2-93.83-15.48-147.71.23a67.52,67.52,0,0,1-85.66-74.81,69.07,69.07,0,0,0,2,8.89,67.52,67.52,0,0,0,83.7,45.92c53.88-15.71,120-9.43,147.71-.23a67.51,67.51,0,0,0,88-54.08A67.09,67.09,0,0,1,1974.07,3510.34Z"/></g><g class="cls-12"><path d="M2342.66,3507.47a67.45,67.45,0,0,1-83.7,45.92c-53.88-15.71-120-9.43-147.71-.23a67.51,67.51,0,0,1-88-74.08,67.45,67.45,0,0,0,88,54.08c27.72-9.2,93.83-15.48,147.71.23a67.45,67.45,0,0,0,83.7-45.92,69.07,69.07,0,0,0,2-8.89A67,67,0,0,1,2342.66,3507.47Z"/></g><g class="cls-11"><path d="M1959.44,3433.13c0,.63,0,1.27-.08,1.9q-.15,3.73-.58,7.39a67.23,67.23,0,0,0-27.53-17.4c-28.62-9.49-66-15.2-105.2-16.06a459.31,459.31,0,0,0-55.71,2.13c.2-3.39.43-6.74.68-10.07a462.82,462.82,0,0,1,55-2.06c39.22.86,76.58,6.57,105.2,16.06A67.16,67.16,0,0,1,1959.44,3433.13Z"/><path d="M2229.17,3411A462.3,462.3,0,0,0,2174,3409c-39.22.86-76.58,6.57-105.2,16.06a67.16,67.16,0,0,0-27.8,17.69c-.15-1.39-.26-2.79-.34-4.2-.1-1.71-.2-3.4-.32-5.09a67.14,67.14,0,0,1,28.46-18.4c28.62-9.49,66-15.2,105.2-16.06a462.57,462.57,0,0,1,54.36,2Q2228.76,3405.95,2229.17,3411Z"/></g><g class="cls-11"><path d="M1783.72,3308.76c48.55,44.14,110.63,75,179.06,82.49q-.87,7.27-1.54,14.83c-69-7.92-131.44-39.58-180-84.59Q1782.44,3315,1783.72,3308.76Z"/><path d="M2216.32,3319.91c-47.76,44.29-109.47,75.84-178.59,85.21q-.87-7.51-1.91-14.74c68.6-8.88,130-39.6,177.8-83Q2215,3313.56,2216.32,3319.91Z"/></g><g class="cls-12"><path d="M2317.59,3086.38c0,153.62-140.68,305.09-320,306.63-175.53,1.51-319-153-319-306.63,0-10,.24-20.06.79-30.27,11.56,146.84,150.22,288.35,318.23,286.9,172.85-1.48,309.81-142.31,319.43-290.07C2317.44,3064.35,2317.59,3075.43,2317.59,3086.38Z"/></g><path class="cls-12" d="M2396.63,2824.52c-35,13.72-71,26-107.74,36.45q-8.25,2.36-16.56,4.59c-77.34,20.83-157.6,33.74-237.88,36.06-102.94,3-205.27-11.3-302.13-37.25q-6.52-1.76-13-3.57c-38.43-10.76-76-23.34-112.26-37.39q-10.86,15.81-20.44,31.9a1242.57,1242.57,0,0,0,121.21,42.21l1.17-1.73c-.18.64-.36,1.28-.53,1.92,103.84,30.14,214.56,47.13,326,43.91,88.47-2.56,176.94-18,261.49-42.69l1.36-.4a1195,1195,0,0,0,119.15-42Q2407.24,2840.48,2396.63,2824.52Z"/><g class="cls-14"><path d="M2352.6,3244.86c-21.27,18.38-65.08,13.14-91.57,9.31q5.26-7.34,10.07-14.94,5.79,1.14,11.24,1.94c26.64,3.89,46.4,1.46,58.83-7.25A71.17,71.17,0,0,0,2352.6,3244.86Z"/><path d="M2711.22,3080.89a48.07,48.07,0,0,0,6.4-2.83,51.65,51.65,0,0,1-21.4,14.83c-37.83,13.59-81.06-22.69-81.49-23.06a25,25,0,0,0-23.13-5,24.27,24.27,0,0,1,2.89-4.19,25,25,0,0,1,35.24-2.82C2630.16,3058.2,2673.39,3094.48,2711.22,3080.89Z"/><path d="M2796.94,3050.12c-9.47,29.84-26.19,53.12-48.11,67.49,14.6-14.05,25.94-32.88,33.11-55.49,9.54-30.08,11.3-66.18,4.71-96.59-8.05-37.13-29.53-70.63-62.13-96.87-28.39-22.85-63.05-38.38-97.6-43.73-28-4.32-56.93-2-86.08,6.92-26.21,8-52,21.19-76.69,39.12-1.26.92-2.52,1.84-3.77,2.78q9.16-7.78,18.77-14.78c24.68-17.93,50.48-31.09,76.69-39.12,29.15-8.92,58.11-11.24,86.08-6.92,34.55,5.35,69.21,20.88,97.6,43.73,32.6,26.24,54.08,59.74,62.13,96.87C2808.24,2983.94,2806.48,3020,2796.94,3050.12Z"/></g><path class="cls-15" d="M1715.92,1566.27c116.42,13.52,200.3,156.9,187.93,283.2-12.32,125.78-122.29,257.07-248,242.75-114.09-13-188.1-140-190.54-246.66C1462.09,1702.66,1586.23,1551.21,1715.92,1566.27Z"/><path class="cls-13" d="M1773.21,1584.26a161.64,161.64,0,0,0-24-4.64c-131.66-15.16-257.67,137.35-254.37,281.26,1.85,80.62,44.62,172.72,114.78,219.22-87.5-36.66-142.22-143.06-144.31-234.55-3.25-142.89,120.88-294.34,250.58-279.28A163.69,163.69,0,0,1,1773.21,1584.26Z"/><ellipse class="cls-16" cx="1716.32" cy="1857.81" rx="157.98" ry="136.01" transform="translate(-434.48 3188.7) rotate(-79.02)"/><path class="cls-3" d="M1708.93,2017a120.84,120.84,0,0,1-23.07-2.22c-36.21-7-67.06-30-86.86-64.66s-26.16-76.68-18-118.55c16.8-86.53,91.18-145.14,165.82-130.66,36.21,7,67.06,30,86.87,64.66s26.16,76.68,18,118.55l-1.84-.36,1.84.36c-8.12,41.87-29.81,78.51-61.07,103.19C1765.91,2006.77,1737.56,2017,1708.93,2017Zm15-314.53c-64.65,0-124.55,53.93-139.28,129.82-8,41-1.7,82.17,17.61,116s49.2,56,84.32,62.84a117.17,117.17,0,0,0,22.34,2.15c27.79,0,55.33-9.91,79.36-28.88,30.55-24.12,51.76-60,59.71-101s1.7-82.17-17.6-116-49.21-56-84.32-62.84A115.77,115.77,0,0,0,1723.93,1702.43Z"/><ellipse cx="1724.59" cy="1882" rx="79.63" ry="89.04"/><ellipse class="cls-15" cx="1765.01" cy="1809.24" rx="30.39" ry="31.88" transform="translate(-529.51 2869.32) rotate(-70.51)"/><path class="cls-3" d="M1765.94,1841.67a34.75,34.75,0,0,1-11.69-2c-17.55-6.21-27-24.91-21.06-41.68s25-25.37,42.59-19.15a34.32,34.32,0,0,1,19.33,16.83,31.35,31.35,0,0,1,1.73,24.85C1792.21,1833.57,1779.59,1841.67,1765.94,1841.67Zm-1.85-61.12c-12.11,0-23.28,7.14-27.36,18.67-5.25,14.82,3.17,31.37,18.77,36.89s32.55-2,37.8-16.86a27.65,27.65,0,0,0-1.54-21.9,30.62,30.62,0,0,0-17.23-15A31.39,31.39,0,0,0,1764.09,1780.55Z"/><path class="cls-12" d="M1786.54,1718.46c-3.26-.92-6.58-1.72-10-2.37-74.49-14.46-148.5,44-165.29,130.49-12.59,64.9,10.58,127.19,54.38,160.36-61.54-24-97.88-97.66-82.87-175,16.63-85.65,89.89-143.49,163.63-129.17A118.73,118.73,0,0,1,1786.54,1718.46Z"/><path class="cls-15" d="M2276.79,1561.27c-116.42,13.52-200.3,156.9-187.93,283.2,12.31,125.78,122.29,257.07,248,242.75,114.1-13,188.11-140,190.54-246.66C2530.62,1697.66,2406.48,1546.21,2276.79,1561.27Z"/><path class="cls-13" d="M2219.49,1579.26a162,162,0,0,1,24-4.64c131.65-15.16,257.67,137.35,254.37,281.26-1.86,80.62-44.62,172.72-114.78,219.22,87.49-36.66,142.22-143.06,144.3-234.55,3.26-142.89-120.88-294.34-250.57-279.28A163.8,163.8,0,0,0,2219.49,1579.26Z"/><ellipse class="cls-16" cx="2276.39" cy="1852.81" rx="136.01" ry="157.98" transform="translate(-311.33 467.69) rotate(-10.98)"/><path class="cls-3" d="M2202.1,1982.27c-31.26-24.68-52.95-61.32-61.07-103.19l1.84-.36-1.84.36c-8.13-41.87-1.73-84,18-118.55s50.66-57.63,86.86-64.66c74.64-14.48,149,44.13,165.83,130.66,8.12,41.87,1.72,84-18,118.55s-50.66,57.63-86.86,64.66a120.87,120.87,0,0,1-23.08,2.22C2255.14,2012,2226.8,2001.77,2202.1,1982.27Zm44.54-282.71c-35.12,6.82-65.06,29.13-84.32,62.84s-25.56,75-17.61,116,29.17,76.84,59.72,101c24,19,51.56,28.89,79.36,28.88a117.17,117.17,0,0,0,22.34-2.15c35.12-6.82,65.06-29.13,84.32-62.84s25.56-75,17.61-116c-14.73-75.89-74.63-129.82-139.28-129.82A115.77,115.77,0,0,0,2246.64,1699.56Z"/><ellipse cx="2268.11" cy="1877" rx="79.63" ry="89.04"/><ellipse class="cls-15" cx="2227.69" cy="1804.24" rx="31.88" ry="30.39" transform="translate(-474.39 846.82) rotate(-19.49)"/><path class="cls-3" d="M2195.87,1815.5a31.35,31.35,0,0,1,1.73-24.85,34.32,34.32,0,0,1,19.33-16.83c17.55-6.22,36.65,2.38,42.59,19.15s-3.51,35.47-21.06,41.68a34.75,34.75,0,0,1-11.69,2C2213.12,1836.67,2200.49,1828.57,2195.87,1815.5Zm22.31-38.14a30.62,30.62,0,0,0-17.23,15,27.65,27.65,0,0,0-1.54,21.9c5.25,14.82,22.2,22.38,37.8,16.86s24-22.07,18.77-36.89c-4.08-11.53-15.25-18.67-27.36-18.67A31.39,31.39,0,0,0,2218.18,1777.36Z"/><path class="cls-12" d="M2206.17,1713.46c3.26-.92,6.58-1.72,10-2.37,74.48-14.46,148.49,44,165.29,130.49,12.59,64.9-10.58,127.19-54.39,160.36,61.55-24,97.89-97.66,82.87-175-16.62-85.65-89.88-143.49-163.62-129.17A118.73,118.73,0,0,0,2206.17,1713.46Z"/><path class="cls-12" d="M2749.41,1798.06q0,9.7-.31,18.94c-15.7-308.54-265-613.19-481.5-613.19-155.64,0-248.88,116.58-268,116.74-22.73.2-95.64-116.74-268-116.74-215.85,0-465.69,303.73-481.65,611.81l-.18,3.62c0,1.22-.11,2.43-.16,3.65s-.1,2.42-.14,3.63q-.78-13.71-.81-28.46c-.26-318.49,259.27-643.25,482.47-643.26,172.41,0,245.31,117,268,116.75,19.15-.17,112.39-116.75,268-116.75C2490.66,1154.81,2749.17,1479.57,2749.41,1798.06Z"/><path class="cls-11" d="M2875.31,2377.46c0,209.26-420.37,512-840.86,524.16-461.31,13.34-910.31-319.74-910.31-497.74q0-7.14.3-14c38.59,182.8,468.4,486,909.44,473.26,406.19-11.75,812.27-294.09,841-502.25Q2875.31,2369,2875.31,2377.46Z"/><path class="cls-12" d="M2964.5,1847.07c-.36,127.74-38.12,278.51-110.54,423.57-58.2-126.52-215.38-130.67-215.53-147.89,0-3.44,2.3-7.34,6.3-12.14,29.88,12.38,135.89,21.8,193.55,102.09,59.3-132.15,86.52-259.16,86.84-374.86,1.43-510.11-312.88-784.54-713.42-914.5,35.09,11.39,34.68,6.38,56.06,13.48C2665.92,1066,2965.92,1340,2964.5,1847.07Z"/><path class="cls-9" d="M1996,3407.59c-33.39-.51-119.41-2.73-196.9-12.31-81.46-10.08-127.68-25.15-137.38-44.79-3.63-7.37-2.39-15.26,3.7-23.47,12.47-16.81,17.29-33.7,19.85-69.53,2.81-39.43-2.69-96.95-6.71-138.95-1.94-20.26-3.47-36.26-3.62-45.34-1.14-69.13,4.37-89,17.7-136.9q1.2-4.29,2.5-9c-27.63,47.91-43.37,96.2-46.83,143.77l-.42,5.87-3.93-4.38a72.61,72.61,0,0,0-96.15-10.45,90.21,90.21,0,0,0-30.15,37l-3.84,8.59-.93-9.36c-.19-1.92-.29-4-.3-6.08-.33-90.26,30.29-183.28,88.56-269l1.12-1.64,1.86.72C1738,2874.44,1877.51,2902,2007.66,2902c9.21,0,18.19-.13,26.79-.38,100.61-2.91,204.5-22.29,308.78-57.61,18.77-6.35,37.7-13.3,56.26-20.65l1.89-.75,1.12,1.7c28.46,43.3,49.46,87.47,62.43,131.29,13,44,17.58,86.39,13.57,126.07-.17,1.63-.39,3.28-.68,4.93l-1.11,6.44-3.47-5.54a90.31,90.31,0,0,0-25.43-26.6,71.93,71.93,0,0,0-41-12.87,73.61,73.61,0,0,0-13.21,1.21,72.13,72.13,0,0,0-45.19,28.14l-4.4,5.94-.11-7.39a67.85,67.85,0,0,1,.33-7.85c4-39.39-8.53-87.78-35.37-137.57,2.55,12.2,4.94,22.55,7.13,32,7.86,34,12.61,54.6,10.81,100.93-.58,14.73-5.49,52.43-7.82,66.45-.4,3.1-.85,6.52-1.33,10.14-4,30.39-10.11,76.31-7.19,117.46,2.7,37.86,5.61,53.17,17.49,69.18,6.3,8.49,7.54,16.68,3.69,24.34-22.34,44.48-219.3,56.48-320.32,56.61h-2.69l.2-2.68c6.12-83.61,6-159.43-.34-219.26l0-.25,0-.26c4.25-42,17.67-105.92,34.18-162.93,8.38-28.92,16.89-53.56,24.62-71.25,6-13.76,11.43-23.17,16.41-28.4-2.13,0-2.62.11-2.68.12l-.26.06h-9.06c-42.34,0-113.62-.48-131.59-.6,14.4,30.66,54.64,179.76,62.81,260.4,8.78,86.91-.14,184.76-4.38,222.8l-.26,2.25Z"/><path class="cls-3" d="M1603.19,2824.61c134.72,52.49,273.39,79.89,404.47,79.89h.07c9,0,17.91-.12,26.79-.38,100.83-2.92,205-22.34,309.51-57.74q28.33-9.59,56.38-20.7c56.85,86.51,83.61,176.58,75.6,255.74-.16,1.6-.38,3.19-.65,4.75a93,93,0,0,0-26.13-27.33,74.46,74.46,0,0,0-42.46-13.31,76.28,76.28,0,0,0-13.66,1.25,74.46,74.46,0,0,0-46.75,29.11,64.09,64.09,0,0,1,.32-7.56c4.43-43.85-11.21-98.08-43.42-152.77,13.4,69.22,23.48,84,21,147.78-.56,14.35-5.4,51.81-7.79,66.14-3.92,30.55-11.83,82-8.54,128.19,2.63,36.9,5.33,53.45,18,70.49,42.93,57.85-181.45,76.79-314.62,77,3.42-46.7,8.36-137.62-.34-219.7,8.62-85.13,55.44-259.77,80.58-265.16,12.34,0,4.82-.21-2.5-.21-3.92,0-7.78,0-8.52.21h-8.84c-49,0-135.78-.63-135.78-.63,11.37,17.17,55.89,178,64.51,263.18,8.43,83.39.64,177.29-4.38,222.27-117.8-1.8-373.51-16.07-328.61-76.58,12.65-17.05,17.7-33.94,20.33-70.84,4.17-58.48-9.86-156.64-10.32-184.51-1.32-80,6-92.68,24.85-162.55-26.37,41.79-51.9,97.35-56.47,160.26a75.11,75.11,0,0,0-99.47-10.81,93.15,93.15,0,0,0-31,38c-.19-1.92-.28-3.87-.29-5.84-.33-90,30.07-182.17,88.13-267.59m-1.9-6.11-2.24,3.3c-58.55,86.15-89.32,179.66-89,270.42,0,2.2.12,4.32.31,6.31l1.86,18.73,7.68-17.18a87.82,87.82,0,0,1,29.32-36,70.12,70.12,0,0,1,92.84,10.09l7.85,8.75.86-11.73c2.06-28.44,8.71-57.58,19.74-86.63a378.91,378.91,0,0,1,16.29-36.71c-10.94,39.86-15.45,62.05-14.4,125.35.15,9.18,1.69,25.22,3.63,45.54,4,41.91,9.5,99.31,6.7,138.53-2.51,35.28-7.22,51.86-19.36,68.22-8.33,11.24-6.74,20.38-3.93,26.07,10.24,20.73,55.81,35.83,139.31,46.16,77.62,9.59,163.75,11.82,197.17,12.33l4.55.07.5-4.52c4.25-38.11,13.2-136.17,4.38-223.32-7.88-77.92-45.74-219.73-61.49-257.62,22.66.15,88,.57,127.79.57h6.58c-3.73,5.13-8.12,12.9-13.29,24.73-7.76,17.79-16.31,42.53-24.72,71.56-16.55,57.14-30,121.27-34.26,163.37l-.06.51.06.52c6.32,59.67,6.44,135.34.32,218.8l-.39,5.38h5.39c66.91-.09,139.83-4.7,195.06-12.35,33.88-4.69,61.58-10.49,82.33-17.23,24.83-8.07,39.61-17.36,45.16-28.4,3-5.9,4.68-15.36-3.92-27-11.51-15.51-14.34-30.55-17-67.87-2.91-40.89,3.15-86.66,7.17-116.95.47-3.59.92-7,1.33-10.15,2.35-14.14,7.26-51.88,7.83-66.67,1.82-46.66-3-67.34-10.87-101.59-.94-4.1-1.93-8.37-3-12.89,20.49,43.14,29.74,84.46,26.28,118.77a68.53,68.53,0,0,0-.35,8.14l.24,14.76,8.78-11.87A69.64,69.64,0,0,1,2394,3051.7a71.35,71.35,0,0,1,12.76-1.17,69.51,69.51,0,0,1,39.62,12.42,87.88,87.88,0,0,1,24.73,25.87l6.93,11.1,2.24-12.9c.29-1.7.53-3.42.7-5.1,4-40-.55-82.74-13.66-127-13-44-34.15-88.45-62.74-132l-2.24-3.4-3.78,1.5c-18.52,7.34-37.41,14.28-56.14,20.61-104,35.24-207.69,54.58-308,57.48-8.57.25-17.54.38-26.65.38h-.07c-64.9,0-132.16-6.78-199.9-20.17A1201.21,1201.21,0,0,1,1605,2820l-3.72-1.45Z"/><g class="cls-12"><path class="cls-3" d="M1697.4,3318.28c12.65-17.05,29.34-48.84,32-85.74,4.17-58.48-27.95-188.37-21.93-321.93-23,36.4-20.48,53.26-28.88,106.32-1.18,15-1.54,32.73-1.15,56.23.46,27.87,14.49,126,10.32,184.51-2.63,36.9-7.68,53.79-20.33,70.84-44.9,60.51,210.81,74.78,328.61,76.58,1-8.56,2-18.89,3-30.58C1873.47,3371,1655.68,3374.5,1697.4,3318.28Zm315.85,56.58h.83Z"/></g><g class="cls-12"><path class="cls-3" d="M1998,3374.51c1,11.69,2.07,22,3,30.58,117.8-1.8,373.51-16.07,328.61-76.58-12.65-17.05-17.7-33.94-20.33-70.84-4.17-58.48,15.69-158.2,16.15-186.07.39-23.5-.06-47.7-1.24-62.74-8.4-53.06-6.47-61.85-29.44-98.25,6,133.56-31.28,263.45-27.11,321.93,2.63,36.9,19.32,68.69,32,85.74C2341.4,3374.5,2123.61,3371,1998,3374.51Zm-15,.37h.83Z"/></g><path class="cls-15" d="M2018.24,3407.75c-4.6,0-9.11,0-13.49-.05l-6.69-.08-4.84-.07.31-2.74c2.91-26.11,1.29-66.37-.58-113-1.3-32.27-2.76-68.84-2.76-104.5,0-21.9-2.93-69.83-22.55-144.89-12-45.79-26.75-87-35.94-100.12-7.58-10.85-10.07-17.38-8.09-21.19.71-1.36,2.3-3,5.83-3,8.22,0,24,9.14,27.51,11.27,2.59.36,6.76,4.21,22.73,45.69,9.2,23.89,18.75,51.06,23.88,65.65.46,1.33.91,2.59,1.31,3.73,9.63-23.49,43.2-103.21,53.12-111.41.15-.12,14.66-11.59,23.68-11.59a7.21,7.21,0,0,1,6.17,2.85c2.37,3.26,2.2,8.74-.55,17.24a61.87,61.87,0,0,1-4,7.83c-13.68,24.74-55.3,100-59,237.46-1.46,54.95-1.85,103.88-2.17,143.19-.29,36.38-.5,62.66-1.44,75.38l-.17,2.32Z"/><path class="cls-3" d="M1929.44,2920.64c8.32,0,26.76,11.23,26.76,11.23,7.83,0,48.16,119.55,48.52,119.55h0c0-.26,44-107.47,54.86-116.42,1.11-.91,14.43-11,22.09-11,4.81,0,7.38,4,3.24,16.82-2.86,8.89-58.82,86.43-63.07,246-2.82,106.14-1.68,192.23-3.6,218.45-4.59,0-9.09,0-13.47-.05l-6.68-.08-2.08,0c5-45-3.32-132-3.32-217.77,0-85.58-40.7-220.33-58.94-246.44-10.85-15.53-9.7-20.24-4.31-20.24m0-5c-5,0-7.2,2.71-8,4.33-2.54,4.86-.15,11.75,8.25,23.77,9,12.94,23.67,53.79,35.57,99.32,19.55,74.79,22.47,122.48,22.47,144.26,0,35.71,1.47,72.31,2.76,104.6,1.87,46.52,3.48,86.69.59,112.62l-.61,5.47,5.51.08h1l1.12,0,6.71.08c3.8,0,8,.05,13.51.05h4.65l.34-4.63c.93-12.81,1.15-39.12,1.44-75.54.31-39.31.71-88.23,2.17-143.15,1.55-58.31,10.24-112.37,25.81-160.69a404.22,404.22,0,0,1,32.83-75.63c2.36-4.27,3.66-6.61,4.19-8.27,3-9.33,3.07-15.52.19-19.48a9.79,9.79,0,0,0-8.19-3.88c-10,0-25.12,12-25.26,12.16-2.12,1.75-7.7,6.36-32.87,63.31-5.87,13.26-13.48,31.07-18.48,43-5.29-15.05-14.33-40.64-23-63.29-5.16-13.39-9.51-23.92-12.94-31.31-4.81-10.37-7.71-14.65-11-15.72-4.54-2.72-19.92-11.52-28.62-11.52Z"/><path class="cls-5" d="M1547.78,3062.09A91.06,91.06,0,0,0,1516,3103c.27,1.55.59,3.08,1,4.59a88.85,88.85,0,0,1,32.28-43.43,70.05,70.05,0,0,1,96.11,14c.06-1.24.13-2.48.2-3.72A72.47,72.47,0,0,0,1547.78,3062.09Z"/><path class="cls-3" d="M1546.32,3060.06a93.15,93.15,0,0,0-31,38c.15,1.66.36,3.3.64,4.92s.59,3.08,1,4.59a88.85,88.85,0,0,1,32.28-43.43,70.05,70.05,0,0,1,96.11,14c.06-1.24.13-2.48.2-3.72s.15-2.38.24-3.56A75.11,75.11,0,0,0,1546.32,3060.06Z"/><path class="cls-5" d="M2447.81,3060.9A72.5,72.5,0,0,0,2347,3079.35l-.4.6c.1,1.32.24,2.64.43,3.94.65-1.06,1.32-2.1,2-3.12a69.6,69.6,0,0,1,45-29.08,71.48,71.48,0,0,1,12.75-1.16,69.57,69.57,0,0,1,39.63,12.42,88.09,88.09,0,0,1,27.32,30.3c.33-1.14.64-2.3.9-3.47A90.29,90.29,0,0,0,2447.81,3060.9Z"/><path class="cls-3" d="M2449.23,3058.84a75,75,0,0,0-102.87,17c0,1.36.08,2.72.19,4.06s.24,2.64.43,3.94c.65-1.06,1.32-2.1,2-3.12a69.6,69.6,0,0,1,45-29.08,71.48,71.48,0,0,1,12.75-1.16,69.57,69.57,0,0,1,39.63,12.42,88.09,88.09,0,0,1,27.32,30.3c.33-1.14.64-2.3.9-3.47s.53-2.39.75-3.61A93,93,0,0,0,2449.23,3058.84Z"/><path class="cls-17" d="M2962.83,1778.94C2833.16,1636.23,2551.49,1357,1999.73,1357s-756.16,205.93-962.31,423.83c5.45-113.06,30.66-236.41,75.12-358,185.37-186.61,402-345.87,887.19-345.87,515.27,0,795,243.53,935.34,392C2954.22,1566,2963.56,1669.83,2962.83,1778.94Z"/><path class="cls-18" d="M2779.66,1077.3C2616.94,951.88,2368.73,827,1999.73,827c-247.71,0-425.4,41.5-564.68,107,155.4-139,355.18-230.76,597.52-230.64C2372.85,703.48,2624.5,844.28,2779.66,1077.3Z"/><path class="cls-19" d="M2935.07,1469c-140.35-148.43-420.07-392-935.34-392-485.23,0-701.82,159.26-887.19,345.87,65.82-180,173.86-356,322.51-488.91,139.28-65.46,317-107,564.68-107,369,0,617.22,124.9,779.94,250.32C2853.75,1188.58,2905.84,1320.89,2935.07,1469Z"/><path class="cls-20" d="M2962.83,1818.94C2833.16,1676.23,2551.49,1397,1999.73,1397s-756.16,205.93-962.31,423.83q1-21.35,3-43.17C1245.56,1560.93,1450.64,1357,1999.73,1357c551.48,0,833.14,279,962.9,421.73Q2963,1798.7,2962.83,1818.94Z"/><path class="cls-21" d="M2935.07,1469c-234-247.42-545.86-380.69-886.21-391.21-202.46-6.26-406,26.24-585.15,124.28-137.83,75.42-251.86,183.24-372.09,282.66,53-188.6,151-355.62,289.29-498.63,56.95-58.88,121.89-84.25,201.4-107.21,159.2-46,329.69-58.09,494.66-50,158.22,7.77,315.46,40.71,460.74,104.65,98.4,43.31,217.72,98.09,272.92,193.73C2871.64,1233,2911.16,1349.57,2935.07,1469Z"/><path class="cls-22" d="M2962.83,1778.94C2833.16,1636.23,2551.49,1357,1999.73,1357s-756.16,205.93-962.31,423.83q1.55-32.27,5.25-65.55c204.39-215.83,410-418.28,957.06-418.28,550.85,0,832.5,278.32,962.46,421.24Q2963,1748.3,2962.83,1778.94Z"/><path class="cls-23" d="M2958.08,1784.23a15,15,0,0,0,8-27.69c-74-46.61-158-90.63-270.38-97a15,15,0,1,0-1.71,30c105.59,6,185.49,48,256.1,92.48A15,15,0,0,0,2958.08,1784.23Z"/><g class="cls-14"><path d="M2694,1689.44c105.59,6,185.49,48,256.1,92.48a15,15,0,0,0,22.14-17.69,15,15,0,0,1-22.14,7.69c-70.61-44.46-150.51-86.44-256.1-92.48a15,15,0,0,1-13.29-10,15,15,0,0,0,13.29,20Z"/></g><path class="cls-23" d="M1945,1665.55l9.75,28.37c25.28-8.69,53-14.52,84,1.47l13.75-26.66C2011.06,1647.4,1973.27,1655.82,1945,1665.55Z"/><path class="cls-24" d="M2052.42,1668.73l-13.75,26.66c-31-16-58.68-10.16-84-1.47l-9.75-28.37q2.26-.78,4.62-1.55l5.13,14.92c25.28-8.69,53-14.52,84,1.47l7.55-14.65C2048.28,1666.66,2050.34,1667.66,2052.42,1668.73Z"/><path class="cls-23" d="M2377.54,1560.23c139.78,0,280.37,46.21,316.17,157.38,89.77,278.76-106.22,380.54-297.84,380.54a550,550,0,0,1-59.87-3.28c-207.18-22.7-277.92-243.37-277.06-382.06.57-92.42,159.06-152.58,318.6-152.58m0-30a659.2,659.2,0,0,0-122.6,11.37c-40.26,7.65-76.77,18.7-108.53,32.86-34.52,15.4-62,33.91-81.79,55a139.17,139.17,0,0,0-25.75,38,111.55,111.55,0,0,0-9.93,45.17c-.24,39.15,4.81,81.41,14.62,122.22,11.22,46.64,28,89.53,49.91,127.49,54.87,95.08,137.6,151.22,239.26,162.36a580.53,580.53,0,0,0,63.14,3.46c60.87,0,119.22-9.84,168.74-28.46a327.72,327.72,0,0,0,74.08-38.74,257,257,0,0,0,59.63-58.28c26.24-36,41.85-78.47,46.41-126.21,4.81-50.3-2.75-106.84-22.46-168-10.12-31.42-27.76-59.59-52.42-83.73-22.22-21.75-50.15-40.2-83-54.85-58.12-25.9-130.49-39.6-209.29-39.6Z"/><path class="cls-23" d="M1038.06,1784.23a15,15,0,0,1-8-27.69c74-46.61,158-90.63,270.38-97a15,15,0,1,1,1.71,30c-105.59,6-185.49,48-256.1,92.48A15,15,0,0,1,1038.06,1784.23Z"/><g class="cls-14"><path d="M1302.14,1689.44c-105.59,6-185.49,48-256.1,92.48a15,15,0,0,1-22.14-17.69,15,15,0,0,0,22.14,7.69c70.61-44.46,150.51-86.44,256.1-92.48a15,15,0,0,0,13.29-10,15,15,0,0,1-13.29,20Z"/></g><path class="cls-25" d="M2058.94,1712.81c-.86,138.69,69.88,359.36,277.06,382.06s456.9-69.25,357.71-377.26C2617.05,1479.55,2060,1539.42,2058.94,1712.81Z"/><path class="cls-23" d="M1616.88,1561.57c159.54,0,318,60.16,318.6,152.58.87,138.69-69.88,359.36-277.06,382.06a552.25,552.25,0,0,1-59.86,3.28c-191.62,0-387.62-101.78-297.85-380.54,35.8-111.17,176.39-157.38,316.17-157.38m0-30c-78.8,0-151.17,13.7-209.29,39.6-32.87,14.65-60.8,33.1-83,54.85-24.66,24.14-42.3,52.31-52.42,83.73-19.71,61.21-27.27,117.75-22.46,168,4.56,47.74,20.18,90.2,46.41,126.21a257.2,257.2,0,0,0,59.63,58.28,327.51,327.51,0,0,0,74.08,38.73c49.52,18.63,107.88,28.47,168.75,28.47a583,583,0,0,0,63.13-3.46c101.66-11.14,184.4-67.28,239.26-162.36,21.9-38,38.7-80.85,49.91-127.49,9.81-40.81,14.87-83.07,14.62-122.22a111.39,111.39,0,0,0-9.93-45.17,139.35,139.35,0,0,0-25.74-38c-19.76-21.12-47.28-39.63-81.8-55-31.75-14.16-68.27-25.21-108.52-32.86a659.22,659.22,0,0,0-122.61-11.37Z"/><path class="cls-14" d="M1616.88,1548.57c-139.78,0-280.37,46.21-316.17,157.38-16.31,50.64-23.18,95.44-22.37,134.84.78-36.18,7.83-76.68,22.37-121.84,35.8-111.17,176.39-157.38,316.17-157.38,158,0,314.93,59,318.53,149.88q.1-5.22.07-10.3C1934.91,1608.73,1776.42,1548.57,1616.88,1548.57Zm348.55,162.49a523.47,523.47,0,0,1-14.57,112.12c-11.21,46.64-28,89.53-49.91,127.49-54.86,95.08-137.6,151.22-239.26,162.36a583,583,0,0,1-63.13,3.46c-60.87,0-119.23-9.84-168.75-28.47a327.51,327.51,0,0,1-74.08-38.73A257.2,257.2,0,0,1,1296.1,1991c-26.23-36-41.85-78.47-46.41-126.21q-1.11-11.64-1.33-23.73a318.73,318.73,0,0,0,1.33,36.73c4.56,47.74,20.18,90.2,46.41,126.21a257.2,257.2,0,0,0,59.63,58.28,327.51,327.51,0,0,0,74.08,38.73c49.52,18.63,107.88,28.47,168.75,28.47a583,583,0,0,0,63.13-3.46c101.66-11.14,184.4-67.28,239.26-162.36,21.9-38,38.7-80.85,49.91-127.49,9.81-40.81,14.87-83.07,14.62-122.22C1965.48,1713,1965.46,1712,1965.43,1711.06Z"/><path class="cls-24" d="M2693.71,1704.61c-35.8-111.17-176.39-157.38-316.17-157.38-159.54,0-318,60.16-318.6,152.58q0,5.07.07,10.29c3.61-90.88,160.56-149.87,318.53-149.87,139.78,0,280.37,46.21,316.17,157.38,14.54,45.16,21.59,85.66,22.37,121.85C2716.9,1800.05,2710,1755.25,2693.71,1704.61Zm52.35,135.12q-.21,12.09-1.33,23.73c-4.56,47.74-20.17,90.2-46.41,126.21a257,257,0,0,1-59.63,58.28,327.72,327.72,0,0,1-74.08,38.74c-49.52,18.62-107.87,28.46-168.74,28.46a580.53,580.53,0,0,1-63.14-3.46c-101.66-11.14-184.39-67.28-239.26-162.36-21.9-38-38.69-80.85-49.91-127.49A524,524,0,0,1,2029,1709.72c0,1,0,1.93,0,2.9-.24,39.15,4.81,81.41,14.62,122.22,11.22,46.64,28,89.53,49.91,127.49,54.87,95.08,137.6,151.22,239.26,162.36a580.53,580.53,0,0,0,63.14,3.46c60.87,0,119.22-9.84,168.74-28.46a327.72,327.72,0,0,0,74.08-38.74,257,257,0,0,0,59.63-58.28c26.24-36,41.85-78.47,46.41-126.21A318.73,318.73,0,0,0,2746.06,1839.73Z"/><g class="cls-12"><path class="cls-3" d="M1512.86,3098.29c-.19-1.92-.29-4-.3-6.08-.33-90.26,30.29-183.28,88.56-269l1.12-1.64,1.86.72c8.9,3.47,17.94,6.87,26.85,10.11l2.9,1.05-1.63,2.62c-44,70.87-68.87,144.32-73.78,218.31l-.09,1.42-1.27.64a74.43,74.43,0,0,0-9.31,5.66,90.27,90.27,0,0,0-30.14,37l-3.84,8.59Z"/><path class="cls-3" d="M1603.19,2824.61q13.43,5.23,26.91,10.13c-44,70.73-69.25,145.48-74.15,219.46a75,75,0,0,0-9.63,5.86,93.15,93.15,0,0,0-31,38c-.19-1.92-.28-3.87-.29-5.84-.33-90,30.07-182.17,88.13-267.59m-1.9-6.11-2.24,3.3c-58.55,86.15-89.32,179.65-89,270.42,0,2.2.12,4.32.31,6.31l1.86,18.73,7.68-17.18a87.82,87.82,0,0,1,29.32-36,70.38,70.38,0,0,1,9-5.46l2.54-1.29.19-2.84a432.64,432.64,0,0,1,22.17-109.68,518.88,518.88,0,0,1,51.24-107.47l3.25-5.24-5.79-2.1c-8.93-3.24-18-6.63-26.8-10.09l-3.72-1.45Z"/></g><g class="cls-12"><path class="cls-3" d="M1996,3407.59l-5.25-.09-1.35,0,0-5c2.13,0,4.3-.06,6.48-.1l2.65-.05v2.55a3.66,3.66,0,0,1,0,.57l-.31,2.17Zm-483.12-309.3c-.19-1.92-.29-4-.3-6.08,0-12.79.53-25.8,1.72-38.65l.13-1.39,1.25-.62a77.51,77.51,0,0,1,54.94-5.2l8.75,2.41-8.75,2.41a71.93,71.93,0,0,0-22.82,10.92,90.21,90.21,0,0,0-30.15,37l-3.84,8.59Zm960.38-10.79a90.31,90.31,0,0,0-25.43-26.6,72.57,72.57,0,0,0-11.45-6.48l-1.46-.66v-1.61c-.29-67.44-24.08-141.07-68.79-212.94l-1.63-2.62,2.9-1.05c10.69-3.87,21.49-8,32.12-12.18l1.89-.75,1.12,1.7c28.46,43.3,49.46,87.47,62.43,131.29,13,44,17.58,86.39,13.57,126.07-.17,1.63-.39,3.28-.68,4.93l-1.11,6.44Z"/><path class="cls-3" d="M2400.41,2825.68c56.85,86.51,83.61,176.58,75.6,255.74-.16,1.6-.38,3.19-.65,4.75a93,93,0,0,0-26.13-27.33,75.47,75.47,0,0,0-11.84-6.7c-.29-67.85-24.25-142-69.17-214.25q16.16-5.85,32.19-12.21M1549.9,3046.05a75.76,75.76,0,0,1,20,2.71,74.63,74.63,0,0,0-23.62,11.3,93.15,93.15,0,0,0-31,38c-.19-1.92-.28-3.87-.29-5.84q-.07-19.15,1.71-38.41a74.52,74.52,0,0,1,33.13-7.74M1996,3404.88a1.49,1.49,0,0,1,0,.21l-6.59-.11c2.18,0,4.39-.06,6.61-.1m406.32-585.35-3.78,1.5c-10.6,4.2-21.38,8.29-32.05,12.16l-5.81,2.1,3.26,5.24c44.48,71.48,68.13,144.66,68.42,211.63v3.22l2.93,1.32a71.2,71.2,0,0,1,11.06,6.25,87.88,87.88,0,0,1,24.73,25.87l6.93,11.1,2.24-12.9c.29-1.71.53-3.42.7-5.1,4-40-.55-82.74-13.66-127-13-44-34.15-88.45-62.74-132l-2.24-3.4ZM1549.9,3041.05a80.07,80.07,0,0,0-35.35,8.26l-2.5,1.24-.26,2.78c-1.2,12.93-1.78,26-1.73,38.89,0,2.2.12,4.32.31,6.31l1.86,18.73,7.68-17.18a87.82,87.82,0,0,1,29.32-36,69.68,69.68,0,0,1,22-10.54l17.49-4.83-17.49-4.81a80.42,80.42,0,0,0-21.37-2.89ZM2001,3399.79l-5.09.09h0c-2.2,0-4.39.08-6.55.1l0,10h.55l6.06.1,4.39.06.63-4.34a6.73,6.73,0,0,0,.07-.93v-5.09Z"/></g><g class="cls-12"><path class="cls-3" d="M1603.93,3072.54a72,72,0,0,0-34.65-21.37l-8.75-2.39,8.74-2.43a77.12,77.12,0,0,1,20.63-2.8,78,78,0,0,1,19,2.37l2.2.55-.34,2.25c-1.15,7.53-2,15-2.53,22.33l-.42,5.87Z"/><path class="cls-3" d="M1589.9,3046.05a75.36,75.36,0,0,1,18.44,2.29c-1.13,7.39-2,14.91-2.55,22.53a74.51,74.51,0,0,0-35.85-22.11,74.56,74.56,0,0,1,20-2.71m0-5a79.69,79.69,0,0,0-21.3,2.89l-17.49,4.85,17.51,4.79a69.51,69.51,0,0,1,33.45,20.63l7.86,8.76.85-11.74c.52-7.23,1.36-14.67,2.5-22.13l.69-4.5-4.41-1.11a80.45,80.45,0,0,0-19.66-2.44Z"/></g><path class="cls-9" d="M1542.86,3068.29c-.19-1.92-.29-4-.3-6.08v-2.53l2.31-1.66c1.77-1.26,3.46-2.37,5.16-3.39l8.83-5.3-5.41,8.75a93.6,93.6,0,0,0-5.82,11l-3.84,8.59Z"/><path class="cls-3" d="M1551.32,3056.77a96,96,0,0,0-6,11.27c-.19-1.92-.28-3.87-.29-5.84V3061l1.26-.91c1.64-1.17,3.3-2.27,5-3.29m15.08-14.88-17.65,10.59c-1.76,1.06-3.5,2.2-5.33,3.51l-.68.49-.59.42-2.09,1.5v3.8c0,2.22.12,4.34.31,6.33l1.86,18.73,7.68-17.18a91.49,91.49,0,0,1,5.66-10.68l10.83-17.51Z"/><path class="cls-25" d="M1935.48,1714.15c.87,138.69-69.88,359.36-277.06,382.06S1201.52,2027,1300.71,1719C1377.37,1480.89,1934.41,1540.76,1935.48,1714.15Z"/><path class="cls-26" d="M1784.05,2061.38c0,75.28,98.57,166.65,215.68,165.63,107.93-.94,213.18-91.24,213.18-165.41,0-59.68-124.17-112.16-213.18-111.39C1917.1,1950.93,1784.05,1990.78,1784.05,2061.38Z"/><g class="cls-12"><path d="M2212.91,2081.6c0,74.17-105.25,164.47-213.18,165.41-117.11,1-215.68-90.35-215.68-165.63a54.18,54.18,0,0,1,.71-8.78c9,72.83,103.62,155.38,215,154.41,102.38-.89,202.34-82.18,212.35-153.85A43.67,43.67,0,0,1,2212.91,2081.6Z"/></g><path class="cls-14" d="M2212.91,2061.6c0,74.17-105.25,164.47-213.18,165.41-117.11,1-215.68-90.35-215.68-165.63a55.09,55.09,0,0,1,.79-9.31c42.18,52.17,123.35,95.66,214.39,94.95,85.09-.67,168.69-45.29,211.9-97.87A45.3,45.3,0,0,1,2212.91,2061.6Z"/><path class="cls-27" d="M1073.69,1210a1303.71,1303.71,0,0,0,370-464.85c9-19-4.46-48.45-26.34-58.65l-59.27-27.62c-15.9-7.41-105.31,45-245.12,192.83-121.86,128.87-153.37,280.35-142.58,294.19l40.21,51.57C1025.47,1216.52,1057.19,1223,1073.69,1210Z"/><path class="cls-28" d="M970.42,1145.91l40.21,51.57c14.84,19,46.56,25.55,63.06,12.53a1303.45,1303.45,0,0,0,370-464.86c9-19-4.46-48.44-26.33-58.64l-11.52-5.36a1303.64,1303.64,0,0,1-321.07,371.45c-16.5,13-48.21,6.51-63-12.52q-9.42-12.06-18.83-24.15C972,1084.46,964.22,1138,970.42,1145.91Z"/><path class="cls-18" d="M1079.28,1300.58a1303.66,1303.66,0,0,0,459.56-536.21L1487.7,709.5a1303.6,1303.6,0,0,1-470.48,548.93Z"/><path class="cls-29" d="M1538.84,764.37a1303.66,1303.66,0,0,1-459.56,536.21l-62.06-42.15q11.19-7.35,22.21-14.92,19.93,13.56,39.85,27.07a1303.66,1303.66,0,0,0,450.13-516.32Z"/><path class="cls-18" d="M1161.71,1330.4a1303.54,1303.54,0,0,0,419.22-489.13c3.87-7.82,3-18.41-2.09-26.1q-12.54-19-25.15-38.07a1303.65,1303.65,0,0,1-459.56,536.21q20.74,9.54,41.47,19C1144,1336.17,1154.57,1335.42,1161.71,1330.4Z"/><path class="cls-30" d="M1022.47,1273.69c222.59-140.12,373.9-315.72,478.31-557.13a17.52,17.52,0,0,0-3.19-17.87l-33.93-36.4c-5-5.39-11.89-4.2-14.75,2.48C1344,910.31,1190,1089.13,963.36,1230.36c-6.17,3.84-6.29,10.81-.2,15l41.16,28C1009.47,1276.76,1017.27,1277,1022.47,1273.69Z"/><path class="cls-31" d="M1094.05,1323.17a1303.61,1303.61,0,0,0,469.38-547.66,7,7,0,0,0-.7-6.64l-13.5-19.36c-2-2.84-5.3-2.67-6.65.33a1303.58,1303.58,0,0,1-477.09,556.65c-2.77,1.8-2.43,5.1.69,6.63l21.2,10.37A7,7,0,0,0,1094.05,1323.17Z"/><path class="cls-32" d="M1563.43,775.51a1303.61,1303.61,0,0,1-469.38,547.66,7,7,0,0,1-6.67.32l-21.2-10.37c-3.12-1.53-3.46-4.83-.69-6.63l5.92-3.88,10,4.88a7,7,0,0,0,6.67-.32,1303.58,1303.58,0,0,0,468.89-546.6l5.79,8.3A7,7,0,0,1,1563.43,775.51Z"/><path class="cls-29" d="M1580.93,841.27a1303.54,1303.54,0,0,1-419.22,489.13c-7.14,5-17.74,5.77-26.11,1.94q-20.71-9.49-41.47-19,6.81-4.55,13.56-9.18l17.91,8.21c8.37,3.83,19,3.08,26.11-1.94a1303.54,1303.54,0,0,0,419.22-489.13,25.54,25.54,0,0,0,2.1-14.91l5.81,8.81C1583.91,822.86,1584.8,833.45,1580.93,841.27Z"/><path class="cls-29" d="M1500.78,716.56c-104.41,241.41-255.72,417-478.31,557.13-5.2,3.28-13,3.07-18.15-.42l-41.16-28c-6.09-4.14-6-11.11.2-15q7.75-4.83,15.39-9.72l31.86,20.24a17.53,17.53,0,0,0,18.16-.14c213.76-144,358.09-319.84,455-556.89l13.83,14.84A17.52,17.52,0,0,1,1500.78,716.56Z"/><path class="cls-27" d="M2984.89,1219.16A1303.6,1303.6,0,0,1,2637.4,737.22c-8.08-19.41,6.76-48.19,29.1-57.33L2727,655.12c16.23-6.64,103,50,235.65,204.28,115.59,134.54,139.84,287.35,128.41,300.65l-42.62,49.6C3032.74,1228,3000.75,1233,2984.89,1219.16Z"/><path class="cls-28" d="M3091.09,1160.05q-21.33,24.84-42.62,49.6c-15.72,18.31-47.72,23.31-63.58,9.51A1303.44,1303.44,0,0,1,2637.4,737.21c-8.08-19.4,6.76-48.18,29.1-57.31l11.75-4.81a1303.56,1303.56,0,0,0,303,386.31c15.86,13.8,47.85,8.8,63.58-9.5l20-23.23C3092.43,1098.6,3097.66,1152.4,3091.09,1160.05Z"/><path class="cls-18" d="M2975,1309.36a1303.65,1303.65,0,0,1-433.51-557.48l53.7-52.38A1303.55,1303.55,0,0,0,3039,1270.22Z"/><path class="cls-29" d="M2541.48,751.88A1303.67,1303.67,0,0,0,2975,1309.36l64-39.14q-10.83-7.87-21.48-16l-41.09,25.14a1303.79,1303.79,0,0,1-425-537.17Z"/><path class="cls-18" d="M2891.23,1335.22a1303.61,1303.61,0,0,1-395.45-508.53c-3.49-8-2.1-18.54,3.33-26q13.44-18.4,26.93-36.83a1303.65,1303.65,0,0,0,433.51,557.48q-21.18,8.54-42.33,17C2908.68,1341.83,2898.13,1340.58,2891.23,1335.22Z"/><path class="cls-30" d="M3033,1285.21C2817.35,1134.65,2674.57,952,2581.78,705.94a17.5,17.5,0,0,1,4-17.7l35.62-34.74c5.28-5.15,12.08-3.63,14.61,3.18,93.08,250.25,238.47,436.2,458.08,588.06,6,4.14,5.76,11.1-.52,14.94l-42.45,26A17.49,17.49,0,0,1,3033,1285.21Z"/><path class="cls-31" d="M2959.16,1331.22a1303.66,1303.66,0,0,1-442.77-569.38,7,7,0,0,1,1-6.6l14.4-18.7c2.13-2.74,5.42-2.42,6.63.65a1303.65,1303.65,0,0,0,450,578.74c2.68,1.93,2.18,5.21-1,6.58l-21.66,9.36A7,7,0,0,1,2959.16,1331.22Z"/><path class="cls-32" d="M2516.39,761.84a1303.68,1303.68,0,0,0,442.77,569.39,7,7,0,0,0,6.65.63l21.67-9.35c3.19-1.38,3.68-4.66,1-6.59l-5.73-4.15-10.19,4.4a7,7,0,0,1-6.64-.64,1303.5,1303.5,0,0,1-442.33-568.31l-6.18,8A7,7,0,0,0,2516.39,761.84Z"/><path class="cls-29" d="M2495.78,826.69a1303.64,1303.64,0,0,0,395.45,508.54c6.9,5.35,17.45,6.6,26,3.18q21.15-8.51,42.33-17-6.59-4.86-13.11-9.81l-18.28,7.35c-8.54,3.42-19.09,2.17-26-3.19a1303.61,1303.61,0,0,1-395.45-508.53,25.58,25.58,0,0,1-1.39-15c-2.07,2.85-4.14,5.68-6.22,8.53C2493.68,808.16,2492.29,818.69,2495.78,826.69Z"/><path class="cls-29" d="M2581.78,705.94c92.79,246.1,235.57,428.71,451.24,579.27a17.47,17.47,0,0,0,18.14.44l42.45-26c6.28-3.85,6.49-10.82.51-15q-7.51-5.19-14.91-10.44-16.39,9.36-32.79,18.7a17.51,17.51,0,0,1-18.13-1c-206.66-154-342.45-336.53-427.95-577.93l-14.53,14.17A17.52,17.52,0,0,0,2581.78,705.94Z"/><path class="cls-22" d="M2935.07,1469c-234-247.42-545.86-380.69-886.21-391.21-202.46-6.26-406,26.24-585.15,124.28-137.83,75.42-251.86,183.24-372.09,282.66q13.85-49.26,31.75-96.53c108.82-91.69,214.69-187.37,340.34-256.13,179.16-98,382.69-130.54,585.15-124.28,329.79,10.19,632.88,135.64,864.21,368.51Q2925.77,1422.17,2935.07,1469Z"/><g class="cls-33"><path class="cls-34" d="M2007.21,3407.71h-2.47l-6.68-.08-4.84-.07.31-2.74c2.91-26.11,1.29-66.38-.58-113-1.29-32.26-2.76-68.82-2.76-104.48,0-21.89-2.93-69.83-22.55-144.89-12-45.79-26.75-87-35.94-100.12-7.58-10.84-10.07-17.38-8.08-21.18.71-1.36,2.29-3,5.83-3,2.51,0,5.78.8,10,2.45l6.44,2.53-6.56,2.17c-.25.08-.26.13-.29.22-.18.54-.66,3.87,7.78,15.94,19,27.27,59.39,162.06,59.39,247.87,0,35.56,1.47,72.08,2.76,104.29,1.84,45.79,3.42,85.34.75,111.85l-.23,2.25Z"/><path class="cls-34" d="M1929.45,2920.64c2.41,0,5.66.94,9.07,2.28-3.56,1.18-3.16,6.52,6.23,20,18.24,26.11,58.94,160.86,58.94,246.44,0,84.57,8.11,170.4,3.52,215.89h-2.44l-6.68-.08-2.08,0c5-45-3.32-132-3.32-217.77,0-85.58-40.7-220.33-58.94-246.44-10.85-15.53-9.69-20.24-4.3-20.24m0-5c-5,0-7.21,2.71-8,4.33-2.54,4.87-.15,11.75,8.25,23.77,9,13,23.67,53.79,35.57,99.32,19.55,74.79,22.47,122.49,22.47,144.26,0,35.71,1.47,72.3,2.76,104.58,1.87,46.53,3.48,86.71.59,112.64l-.61,5.47,5.51.08h.83l1.25,0,6.71.08h7l.45-4.5c2.7-26.68,1.11-66.31-.73-112.2-1.3-32.19-2.76-68.68-2.76-104.19,0-86.22-40.65-221.83-59.84-249.3-5.19-7.42-6.74-11.2-7.21-12.87l11.58-3.84-12.87-5c-4.5-1.77-8.07-2.63-10.9-2.63Z"/></g><path class="cls-35" d="M2136.85,2257.75c-48.3,0-89.89,17.44-136.85,17.44s-88.55-17.44-136.85-17.44c-93.9,0-256.26-17.11-256.26,316.63,0,291.47,87.21,371.64,393.11,371.64s393.11-89.08,393.11-371.64C2393.11,2252.4,2230.75,2257.75,2136.85,2257.75Zm61.3,380.78c-138,0,24.63-143.86-198.15-143.86s-60.16,143.86-198.15,143.86c-101.53,0-94.24-232.46-31.83-222.6,66.88,10.56,165.85-11.26,230-11.26s163.1,21.82,230,11.26C2292.39,2406.07,2299.68,2638.53,2198.15,2638.53Z"/><path class="cls-15" d="M1994.9,3160.42a15.51,15.51,0,0,1-15.49-15.49v-90.28a15.51,15.51,0,0,1,15.49-15.49h24.57a15.51,15.51,0,0,1,15.49,15.49v90.28a15.51,15.51,0,0,1-15.49,15.49Zm-1.37-52a1,1,0,0,0-1,1V3138a1,1,0,0,0,1,1h27.74a1,1,0,0,0,1-1v-28.58a1,1,0,0,0-1-1Z"/><path class="cls-3" d="M2019.47,3041.91a12.74,12.74,0,0,1,12.74,12.74v90.28a12.74,12.74,0,0,1-12.74,12.74H1994.9a12.74,12.74,0,0,1-12.74-12.74v-90.28a12.74,12.74,0,0,1,12.74-12.74h24.57m-25.94,99.83h27.74A3.73,3.73,0,0,0,2025,3138v-28.58a3.73,3.73,0,0,0-3.74-3.74h-27.74a3.74,3.74,0,0,0-3.74,3.74V3138a3.74,3.74,0,0,0,3.74,3.73m25.94-105.33H1994.9a18.27,18.27,0,0,0-18.25,18.24v90.28a18.27,18.27,0,0,0,18.25,18.25h24.57a18.27,18.27,0,0,0,18.25-18.25v-90.28a18.27,18.27,0,0,0-18.25-18.24Zm-24.17,74.79h24.2v25h-24.2v-25Z"/><path class="cls-36" d="M2275.51,2551.34c-3.23,56.65-26.8,87.19-77.36,87.19-138,0,24.63-143.86-198.15-143.86s-60.16,143.86-198.15,143.86c-50.56,0-74.12-30.54-77.36-87.19-3.67,63.65,18.65,114.28,77.36,114.28,138,0-24.63-143.86,198.15-143.86s60.16,143.86,198.15,143.86C2256.86,2665.62,2279.18,2615,2275.51,2551.34Zm-138.66-293.59c-48.3,0-89.89,17.44-136.85,17.44s-88.55-17.44-136.85-17.44c-93.9,0-256.26-17.11-256.26,316.63q0,7.83.12,15.5c0-274.73,163.72-305,256.14-305,48.3,0,89.89,17.44,136.85,17.44s88.55-17.44,136.85-17.44c92.42,0,256.14,35,256.14,305q.12-7.66.12-15.5C2393.11,2252.4,2230.75,2257.75,2136.85,2257.75Z"/><path class="cls-37" d="M1869.07,2567.12c5.13-8.41,6.89-18.68,8-29.66C1872.32,2546.82,1870.29,2557,1869.07,2567.12ZM2010,2896c-305.9,0-393.11-80.17-393.11-371.64,0-41.59,2.52-77.72,7.12-109.12-10.83,41.31-17.12,93.41-17.12,159.12,0,291.47,87.21,371.64,393.11,371.64,255.33,0,358.3-62.06,385.37-246.91C2347.08,2845.32,2240.77,2896,2010,2896Z"/><path class="cls-38" d="M1654.06,3136.31a72.51,72.51,0,0,0-102.25-89.25q-2.89,1.56-5.7,3.42a90.78,90.78,0,0,0-31.2,35.26,95.66,95.66,0,0,0-4.34,10q-1.18,3.21-2.16,6.54a115.49,115.49,0,0,0-3.72,43.68,150.25,150.25,0,0,0,13.34,48.57c11.56,24.74,28,41.67,48.88,50.33,2,.85,4.13,1.6,6.21,2.25,1,.32,2.08.62,3.13.9,1.27.34,2.55.63,3.82.9l.22,0q1.76.36,3.51.63l.68.1c1,.14,2,.26,3,.36l1.14.11c.89.07,1.78.13,2.67.17l.67,0a69.3,69.3,0,0,0,7.21-.1l2.06-.16.19,0c.75-.07,1.5-.15,2.25-.25,1.49-.18,3-.42,4.44-.7l2.11-.43.16,0c.71-.16,1.41-.33,2.11-.51s1.42-.37,2.13-.57l.1,0c1.42-.4,2.82-.86,4.2-1.35.71-.25,1.4-.51,2.1-.79l1.83-.74c.81-.34,1.61-.7,2.4-1.06,1.31-.61,2.61-1.26,3.89-2a72.51,72.51,0,0,0,24.88-105.37Z"/><path class="cls-3" d="M1656.85,3136a75,75,0,0,0-104.93-91.78,77.1,77.1,0,0,0-7.19,4.22,93.13,93.13,0,0,0-30,32.29,99.39,99.39,0,0,0-8.76,20.93,118,118,0,0,0-3.81,44.62,152.72,152.72,0,0,0,13.57,49.39c11.83,25.32,28.71,42.68,50.18,51.58a75,75,0,0,0,90.9-111.25Zm-62.21,112c-.85,0-1.7,0-2.55-.05h0a70,70,0,0,1-24.21-5.31c-20.28-8.41-36.29-24.92-47.57-49.07a147.82,147.82,0,0,1-13.12-47.76,113,113,0,0,1,3.63-42.74c6.21-21.22,18.9-38.67,36.68-50.45l1-.62a70.06,70.06,0,0,1,96,20.32,70.29,70.29,0,0,1,7.22,63.18l-.46,1.23.75,1.07a70.1,70.1,0,0,1-57.37,110.2Z"/><path class="cls-11" d="M1629.18,3241.68c-1.28.69-2.58,1.34-3.89,2-.79.36-1.59.72-2.4,1.06l-1.83.74c-.7.28-1.39.54-2.1.79-1.38.49-2.79.94-4.2,1.35l-.1,0q-1.07.3-2.13.57c-.7.18-1.4.35-2.11.51l-.16,0-2.11.43c-1.47.28-3,.51-4.44.7-.75.1-1.5.18-2.25.25l-.19,0-2.06.16q-3.59.23-7.22.09a71.75,71.75,0,0,1-15.74-2.34c-1-.28-2.09-.58-3.13-.9-2.08-.65-4.16-1.4-6.21-2.25-20.88-8.66-37.32-25.59-48.88-50.33a150.25,150.25,0,0,1-13.34-48.57,115.49,115.49,0,0,1,3.72-43.68q1-3.33,2.16-6.54a96.84,96.84,0,0,1,4.34-10v0c-.12-1.66-.16-3.35-.14-5.06a93.13,93.13,0,0,1,30-32.29,77.1,77.1,0,0,1,7.19-4.22c0,1-.08,1.92-.11,2.89a32.27,32.27,0,0,0-3.36,4.88c-14.1,24.54-11.49,79.72-.36,109.56,21.86,58.56,62.83,75.82,77,79.41A28,28,0,0,0,1629.18,3241.68Z"/><path class="cls-9" d="M1507.39,3092.8c-7-11.16-7.72-28.5-1.65-39.47a21.64,21.64,0,0,1,18.08-11.7,19.6,19.6,0,0,1,3.66-13c4.38-6.43,11.38-10.43,18.29-10.43,3.66,0,8.89,1.12,14.15,6,4.66-6.09,10.33-9.28,16.53-9.28a26.42,26.42,0,0,1,19.38,8.86,15.85,15.85,0,0,1,12-5.23c6.84,0,14.53,4.06,19.59,10.35a20.89,20.89,0,0,1,4.81,10.94,23.21,23.21,0,0,1,5.27-.6c13.2,0,23.93,11,23.93,24.62a25,25,0,0,1-5.76,16l-2.57,3.08-1.74-3.61a70.2,70.2,0,0,0-4.8-8.45,72.34,72.34,0,0,0-100.36-20.39,90.21,90.21,0,0,0-29.14,31.4,92.77,92.77,0,0,0-5,10.47l-1.9,4.65Z"/><path class="cls-3" d="M1576.45,3017.54c7.39,0,15.55,4.14,19.32,10.61,3.14-5,7.49-7,12-7,11.32,0,23.8,12.49,21.64,22.31a20.71,20.71,0,0,1,8-1.62c11.79,0,21.35,9.87,21.35,22a22.35,22.35,0,0,1-5.16,14.36,73.82,73.82,0,0,0-5-8.76,75.1,75.1,0,0,0-96.75-25.33,77.1,77.1,0,0,0-7.19,4.22,93.13,93.13,0,0,0-30,32.29,95.1,95.1,0,0,0-5.19,10.75c-9.9-15.78-7.13-47.29,16.25-47.29l1.24,0c-3.74-9.46,6.53-23.39,18.7-23.39,4.77,0,9.83,2.14,14.46,7.52,3.83-6,9.14-10.76,16.22-10.76m0-5.16c-4.59,0-10.9,1.55-16.85,8.19a22.32,22.32,0,0,0-13.83-5c-7.75,0-15.58,4.43-20.42,11.56a23.24,23.24,0,0,0-4.2,12.18,24.33,24.33,0,0,0-17.67,12.72c-6.59,11.92-5.85,30,1.73,42.09l5.34,8.53,3.81-9.32a89.88,89.88,0,0,1,4.91-10.16,87.66,87.66,0,0,1,28.31-30.53,71.3,71.3,0,0,1,6.71-3.93A69.75,69.75,0,0,1,1649,3080.5l3.48,7.22,5.13-6.15a27.63,27.63,0,0,0,6.36-17.67c0-15-11.89-27.2-26.51-27.2a25.21,25.21,0,0,0-3.14.19,24.8,24.8,0,0,0-4.93-9.56c-5.53-6.88-14-11.32-21.6-11.32a18.4,18.4,0,0,0-11.86,4.2,29.26,29.26,0,0,0-19.48-7.83Z"/><path class="cls-38" d="M2396.8,3259.89a72.53,72.53,0,0,1-58.59-115.27,72.5,72.5,0,0,1,109.6-83.72c18,12.46,30.73,30.63,36.68,52.55a115.44,115.44,0,0,1,2.88,43.75c-4.06,35.05-23.3,81.66-64.13,97.67A72.45,72.45,0,0,1,2396.8,3259.89Z"/><path class="cls-3" d="M2396.8,3262.39h0a75,75,0,0,1-61.37-118.18,75.28,75.28,0,0,1,9.47-66.28,75,75,0,0,1,104.33-19.09c18.54,12.8,31.57,31.46,37.68,54a117.88,117.88,0,0,1,2.94,44.68c-4.14,35.74-23.83,83.3-65.7,99.71A74.52,74.52,0,0,1,2396.8,3262.39Zm10-211.86a71.48,71.48,0,0,0-12.75,1.16,70,70,0,0,0-53.44,92.1l.44,1.24-.78,1.06a70,70,0,0,0,82.1,106.45c39.8-15.61,58.57-61.27,62.56-95.63a113.11,113.11,0,0,0-2.81-42.8c-5.8-21.35-18.14-39-35.69-51.16A69.57,69.57,0,0,0,2406.76,3050.53Z"/><path class="cls-11" d="M2487.37,3157.2c-4.06,35.05-23.3,81.66-64.13,97.67A72.32,72.32,0,0,1,2362,3251c10.47-1.34,56.85-14.72,82.77-77,13.12-31.56,17.35-93,.34-114.84,20.29,13.87,27.94,25.75,27.6,27.56a96.49,96.49,0,0,1,11.77,26.77A115.44,115.44,0,0,1,2487.37,3157.2Z"/><path class="cls-9" d="M2475.36,3091.07a90.06,90.06,0,0,0-27.55-30.17,71.93,71.93,0,0,0-41-12.87,73.61,73.61,0,0,0-13.21,1.21,72,72,0,0,0-46.6,30.11c-.61.87-1.2,1.78-1.84,2.8l-2.91,4.69-1.6-5.29a26.24,26.24,0,0,1-1.13-7.65,53.59,53.59,0,0,1,4.51-19.66c3.79-8.51,8.89-13,14.74-13a14.77,14.77,0,0,1,9,3.53c2.06-6.86,6.77-14.94,17.49-14.94,6.16,0,12.27,2.79,15.8,5.17,4.55-5.76,11.56-6.57,17.37-6.57,6.32,0,12.32,3.17,16.52,8.6a20.07,20.07,0,0,1,12.89-4.81c9.09,0,17.24,6.49,20.64,16.29,9.77,2.95,16.72,13.37,16.72,25.4a29,29,0,0,1-5.64,17.45l-2.3,3Z"/><path class="cls-3" d="M2418.4,3030.92c6.65,0,12.52,3.93,16.11,9.94a18.07,18.07,0,0,1,13.3-6.15c8.63,0,16,6.63,18.68,15.86,9.21,2,16.18,11.7,16.18,23.33a26.45,26.45,0,0,1-5.13,15.94,92.82,92.82,0,0,0-28.31-31,74.46,74.46,0,0,0-42.46-13.31,76.28,76.28,0,0,0-13.66,1.25,74.47,74.47,0,0,0-48.21,31.15c-.66,1-1.29,1.92-1.9,2.9a23.9,23.9,0,0,1-1-6.93c0-9.48,5.87-30.17,16.75-30.17,3.09,0,6.58,1.66,10.45,5.72,2.42-13.29,9.24-17.13,16.05-17.13,7.29,0,14.56,4.41,16.37,6.32,3.53-6.47,9.86-7.72,16.8-7.72m0-5a31.32,31.32,0,0,0-11.49,1.77,18.46,18.46,0,0,0-6.35,4.07,32,32,0,0,0-15.33-4.44c-5.37,0-14.16,1.95-18.82,13.56a15.55,15.55,0,0,0-7.68-2.15c-15.49,0-21.75,24.82-21.75,35.17a29.25,29.25,0,0,0,1.23,8.38l3.2,10.56,5.84-9.37c.61-1,1.19-1.87,1.76-2.69a69.49,69.49,0,0,1,45-29.08,70.44,70.44,0,0,1,12.76-1.17,69.51,69.51,0,0,1,39.62,12.42,87.64,87.64,0,0,1,26.79,29.34l3.75,6.65,4.6-6.09a31.51,31.51,0,0,0,6.14-18.95c0-12.63-7.12-23.67-17.29-27.39-4-10.16-12.77-16.8-22.57-16.8a22.25,22.25,0,0,0-12.51,3.9,23.08,23.08,0,0,0-16.9-7.69Z"/><g class="cls-33"><path class="cls-34" d="M2015.9,3148.67a12.76,12.76,0,0,1-11.35-6.93h-11a3.74,3.74,0,0,1-3.74-3.73v-28.58a3.74,3.74,0,0,1,3.74-3.74h9.63v-60a12.82,12.82,0,0,1,.56-3.74h-8.82a12.74,12.74,0,0,0-12.74,12.74v90.28a12.74,12.74,0,0,0,12.74,12.74h24.57a12.75,12.75,0,0,0,12.18-9Z"/></g></g></svg>